<svg width="60" height="60" viewBox="0 0 60 60" fill="none" xmlns="http://www.w3.org/2000/svg">
<path d="M59.1082 37.2405C55.1051 53.3021 38.8374 63.1099 22.7463 59.1043C6.68459 55.0889 -3.10744 38.8211 0.895711 22.7595C4.89886 6.69789 21.1568 -3.1099 37.2086 0.895683C53.3096 4.85218 63.1016 21.1691 59.1082 37.2405Z" fill="#213147"/>
<path d="M11.3902 21.4836V39.1218C11.3902 40.203 12.0192 41.2842 12.9237 41.8213L28.2229 50.6404C29.2122 51.1774 30.3852 51.1774 31.3746 50.6404L46.6737 41.8213C47.663 41.2842 48.2072 40.203 48.2072 39.1218V21.4836C48.2072 20.4025 47.5782 19.3213 46.6737 18.7842L31.3675 9.96511C30.3782 9.42805 29.2051 9.42805 28.2158 9.96511L12.9166 18.7842C11.9273 19.3213 11.3902 20.4025 11.3902 21.4836Z" fill="#213147"/>
<path d="M36.7663 23.646C36.9501 23.2856 37.3953 23.2856 37.4872 23.646L45.0414 44.4359L40.7236 46.9587L34.604 30.1261C34.5122 29.9494 34.5122 29.7657 34.604 29.589L36.7663 23.646Z" fill="#12AAFF"/>
<path d="M31.007 39.666L33.1694 33.723C33.346 33.3626 33.7983 33.3626 33.8832 33.723L39.1053 47.9409L34.7877 50.4637L31.007 40.203C30.9152 40.0263 30.9152 39.8426 31.007 39.666Z" fill="#12AAFF"/>
<path d="M29.7492 10.594C29.8411 10.594 29.9259 10.594 30.0177 10.6859L46.5748 20.2258C46.7514 20.3177 46.8433 20.4943 46.8433 20.7628V39.8426C46.8433 40.0193 46.7514 40.2949 46.5748 40.3797L30.0177 49.9196C29.9259 50.0114 29.8411 50.0114 29.7492 50.0114C29.6573 50.0114 29.5725 50.0114 29.4807 49.9196L12.9237 40.3797C12.747 40.2878 12.6551 40.1111 12.6551 39.8426V20.7628C12.6551 20.5862 12.747 20.3106 12.9237 20.2258L29.4807 10.6859C29.5655 10.594 29.6573 10.594 29.7492 10.594ZM29.7492 7.80273C29.1203 7.80273 28.5762 7.9794 28.0391 8.255L11.4821 17.7949C10.4009 18.4238 9.77197 19.505 9.77197 20.7628V39.8426C9.77197 41.0157 10.4009 42.1817 11.4821 42.8106L28.0391 52.3505C28.5762 52.619 29.1203 52.8027 29.7492 52.8027C30.3781 52.8027 30.9223 52.6261 31.4593 52.3505L48.0163 42.8106C49.0975 42.1817 49.7265 41.1005 49.7265 39.8426V20.7628C49.7265 19.5898 49.0975 18.4238 48.0163 17.7949L31.5441 8.255C31.0071 7.98647 30.4629 7.80273 29.834 7.80273H29.7492Z" fill="#9DCCED"/>
<path d="M18.8596 46.9516L20.386 42.8106L23.4458 45.3334L20.5697 48.0328L18.8596 46.9516Z" fill="#213147"/>
<path d="M31.4523 19.4131H35.6851L35.5933 19.3283C35.8618 19.3283 36.0456 19.5969 35.9537 19.8654L24.7955 50.4637L20.4779 47.9409L30.7314 19.8654C30.8234 19.5898 31.1837 19.4131 31.4523 19.4131Z" fill="white"/>
<path d="M24.1666 19.4131H28.3075C28.5761 19.4131 28.7598 19.6817 28.6679 19.9502L18.7677 47.0435L14.45 44.5207L23.4458 19.8654C23.5376 19.5898 23.898 19.4131 24.1666 19.4131Z" fill="white"/>
</svg>
