<svg width="60" height="60" viewBox="0 0 60 60" fill="none" xmlns="http://www.w3.org/2000/svg">
<path d="M59.1082 37.2405C55.1051 53.3021 38.8374 63.1099 22.7463 59.1043C6.68459 55.0889 -3.10744 38.8211 0.895711 22.7595C4.89886 6.69789 21.1568 -3.1099 37.2086 0.895683C53.3096 4.85218 63.1016 21.1691 59.1082 37.2405Z" fill="#E84142"/>
<path d="M15.5918 42.3588H21.4138C22.7848 42.3588 23.4701 42.3588 24.0818 42.1893C24.7525 41.9903 25.3642 41.6366 25.8726 41.1502C26.3397 40.705 26.6768 40.1152 27.3419 38.9513L27.3614 38.9171L34.9125 25.5688C35.5832 24.397 35.9148 23.8074 36.0623 23.1883C36.2244 22.5177 36.2244 21.8102 36.0623 21.1395C35.9161 20.5255 35.5812 19.9406 34.9214 18.7877L34.9203 18.7854L34.9051 18.7591L31.9498 13.6002C31.3382 12.5242 31.0287 11.9862 30.638 11.7872C30.2179 11.5735 29.7168 11.5735 29.2967 11.7872C28.9061 11.9862 28.5965 12.5242 27.9849 13.6002L13.6092 38.9392C13.0048 40.0005 12.7027 40.5311 12.7248 40.9659C12.7543 41.4376 12.9975 41.865 13.3955 42.123C13.7641 42.3588 14.3683 42.3588 15.5918 42.3588Z" fill="white"/>
<path d="M44.4594 42.3595H36.1168C34.8859 42.3595 34.267 42.3595 33.9058 42.1236C33.5079 41.8658 33.2646 41.4309 33.2351 40.9593C33.2132 40.5278 33.5178 40.0019 34.1273 38.9498L34.1416 38.9251L38.3055 31.7764C38.9173 30.7225 39.2269 30.1992 39.6101 30.0003C40.0302 29.7866 40.5239 29.7866 40.9439 30.0003C41.3245 30.1941 41.621 30.6955 42.2082 31.6887L42.2558 31.7691L46.4345 38.9178L46.4949 39.0217C47.0741 40.0212 47.3697 40.5314 47.3485 40.9518C47.3262 41.4235 47.0757 41.8583 46.6778 42.1163C46.3092 42.3595 45.6901 42.3595 44.4594 42.3595Z" fill="white"/>
</svg>
