<svg width="60" height="60" viewBox="0 0 60 60" fill="none" xmlns="http://www.w3.org/2000/svg">
<path d="M59.1082 37.2405C55.1051 53.3021 38.8374 63.1099 22.7463 59.1043C6.68459 55.0889 -3.10744 38.8211 0.895711 22.7595C4.89886 6.69789 21.1568 -3.1099 37.2086 0.895683C53.3096 4.85218 63.1016 21.1691 59.1082 37.2405Z" fill="#F7931A"/>
<path d="M44.2059 26.059C44.7451 22.059 41.7059 19.9707 37.5392 18.559L38.8333 13.1472L35.5392 12.3531L34.2843 17.6472C33.4117 17.4413 32.5294 17.2354 31.6568 17.059L32.9117 11.7648L29.5784 10.9707L28.2843 16.3825C27.5784 16.2158 26.8627 16.0884 26.1568 15.9217L21.6176 14.8335L20.7843 18.3335C20.7843 18.3335 23.2451 18.8727 23.1568 18.9217C24.4902 19.255 24.7451 20.1276 24.6961 20.7942L23.2353 26.9609C23.3235 27.0001 23.4412 27.0001 23.5686 27.0884C23.4412 27.0492 23.3627 27.0492 23.2353 27.0099L21.2353 35.6374C21.0686 36.0492 20.647 36.6374 19.7353 36.4315C19.7745 36.4707 17.3137 35.8433 17.3137 35.8433L15.7549 39.6374L20.049 40.6374C20.8431 40.8433 21.6372 41.01 22.3823 41.2257L21.0882 46.6865L24.3823 47.4806L25.6765 42.0688C26.598 42.3139 27.4706 42.5296 28.3039 42.7355L27.0098 48.108L30.3039 48.9021L31.598 43.4413C37.2255 44.4414 41.4314 43.9806 43.1372 38.8531C44.5098 34.7649 43.0098 32.4315 40.0098 30.8923C42.2059 30.3923 43.7941 28.9707 44.2059 26.059ZM36.7941 36.6766C35.8333 40.7649 28.9215 38.6374 26.7059 38.0982L28.4117 30.8433C30.6666 31.3923 37.7941 32.3923 36.7941 36.6766ZM37.7059 26.059C36.8333 29.7649 31.0784 27.9805 29.2059 27.5198L30.7941 20.9413C32.6274 21.3923 38.6274 22.1864 37.7059 26.059Z" fill="white"/>
</svg>
