<svg width="60" height="60" viewBox="0 0 60 60" fill="none" xmlns="http://www.w3.org/2000/svg">
<path d="M59.1082 37.2405C55.1051 53.3021 38.8374 63.1099 22.7463 59.1043C6.68459 55.0889 -3.10744 38.8211 0.895711 22.7595C4.89886 6.69789 21.1568 -3.1099 37.2086 0.895683C53.3096 4.85218 63.1016 21.1691 59.1082 37.2405Z" fill="#ECEFF0"/>
<path d="M30.3496 37.2771C30.2331 37.3167 30.1666 37.2153 30.0874 37.1687C26.2022 34.8756 22.3213 32.5811 18.4447 30.2849C18.4071 30.266 18.3682 30.25 18.3281 30.2371V30.1859L18.3969 30.1462C18.4945 30.1206 18.5907 30.0895 18.6848 30.053L27.8402 25.8873C28.6561 25.5155 29.472 25.1495 30.2879 24.7812H30.3461C30.3461 24.8978 30.3461 25.0015 30.3461 25.1122C30.3492 29.1676 30.3504 33.2225 30.3496 37.2771Z" fill="#343535"/>
<path d="M30.3554 24.784H30.2971C30.2971 24.6675 30.3088 24.5509 30.3088 24.4285C30.3088 19.8736 30.3088 15.3182 30.3088 10.7625C30.2954 10.6454 30.3033 10.527 30.3321 10.4128H30.3566C30.8356 11.1203 31.2529 11.8662 31.6935 12.597C35.1839 18.3867 38.6724 24.1756 42.159 29.9637C42.1928 30.0209 42.2196 30.0803 42.2499 30.1432C42.1511 30.1221 42.0541 30.0937 41.9597 30.0581C41.3198 29.7691 40.6775 29.4754 40.0435 29.1805C39.0504 28.7259 38.057 28.2721 37.0632 27.8191L32.2751 25.65C31.6375 25.3563 30.9965 25.0708 30.3554 24.784Z" fill="#2F3030"/>
<path d="M30.3359 10.4068C30.3071 10.521 30.2992 10.6394 30.3126 10.7564C30.3126 15.3114 30.3126 19.8668 30.3126 24.4225C30.3126 24.5391 30.3056 24.6556 30.301 24.778C29.4851 25.1463 28.6692 25.5123 27.8533 25.8841L18.6979 30.0498C18.6038 30.0863 18.5077 30.1174 18.41 30.143C18.6746 29.5929 19.0184 29.094 19.332 28.5672C22.9646 22.5289 26.6 16.4917 30.238 10.4557C30.2621 10.4223 30.2882 10.3904 30.3161 10.3601L30.3359 10.4068Z" fill="#828384"/>
<path d="M30.3554 24.784C30.9965 25.0708 31.6377 25.3564 32.2776 25.6455L37.0657 27.8146C38.0603 28.2668 39.0537 28.7206 40.046 29.1759C40.6847 29.4685 41.3281 29.7645 41.9622 30.0536C42.0567 30.0891 42.1537 30.1176 42.2524 30.1387C42.369 30.2844 42.1965 30.2902 42.144 30.3217C41.1498 30.9161 40.1509 31.5024 39.1544 32.0921C36.2941 33.7845 33.4346 35.4765 30.5759 37.1681C30.5036 37.2101 30.4254 37.2409 30.3496 37.2771C30.3496 33.2233 30.3498 29.1697 30.3498 25.1151C30.351 25.0044 30.3543 24.8948 30.3554 24.784Z" fill="#131313"/>
<path d="M30.3087 39.5798L37.7973 35.1659C39.2271 34.322 40.6561 33.4774 42.0843 32.632L42.2136 32.5609C42.2264 32.6774 42.146 32.7392 42.0971 32.8068C38.8335 37.4076 35.57 42.0069 32.3064 46.6046C31.6887 47.4764 31.0721 48.3529 30.4485 49.2178C30.4159 49.2632 30.3658 49.4765 30.2656 49.2504C30.3448 49.1828 30.3098 49.0919 30.3098 49.0173C30.3106 45.8703 30.3102 42.7245 30.3087 39.5798Z" fill="#2F3030"/>
<path d="M30.308 39.5804C30.308 42.7251 30.308 45.8689 30.308 49.0121C30.308 49.0925 30.343 49.1834 30.2637 49.2452C30.0971 49.1449 30.0248 48.9654 29.9141 48.8174C26.1299 43.4869 22.3477 38.1557 18.5674 32.8237C18.5196 32.7561 18.4753 32.6838 18.4264 32.6092C18.5243 32.5521 18.5768 32.6302 18.6339 32.664C22.4608 34.9236 26.2869 37.1852 30.1122 39.4487C30.1833 39.493 30.2439 39.5384 30.308 39.5804Z" fill="#828384"/>
<path d="M30.3368 10.4067L30.3088 10.3636C30.3601 10.3309 30.3531 10.3787 30.3613 10.4032L30.3368 10.4067Z" fill="#393939"/>
</svg>
