<svg width="60" height="60" viewBox="0 0 60 60" fill="none" xmlns="http://www.w3.org/2000/svg">
<path d="M59.1082 37.2405C55.1051 53.3021 38.8374 63.1099 22.7463 59.1043C6.68459 55.0889 -3.10744 38.8211 0.895711 22.7595C4.89886 6.69789 21.1568 -3.1099 37.2086 0.895683C53.3096 4.85218 63.1016 21.1691 59.1082 37.2405Z" fill="#000008"/>
<path d="M48.5306 39.2625L42.34 45.7302C42.2055 45.8707 42.0426 45.9827 41.8617 46.0593C41.6808 46.1359 41.4856 46.1753 41.2883 46.1752H11.9423C11.8023 46.1752 11.6653 46.1353 11.5482 46.0606C11.4311 45.9858 11.339 45.8793 11.2832 45.7541C11.2274 45.6291 11.2103 45.4908 11.234 45.3563C11.2578 45.2219 11.3213 45.0971 11.4169 44.9974L17.612 38.5297C17.7463 38.3896 17.9085 38.2778 18.0889 38.2012C18.2693 38.1247 18.4638 38.085 18.6606 38.0847H48.005C48.145 38.0847 48.282 38.1246 48.3991 38.1993C48.5161 38.2742 48.6082 38.3807 48.6642 38.5058C48.7199 38.6309 48.737 38.7691 48.7132 38.9036C48.6895 39.038 48.626 39.1628 48.5306 39.2625ZM42.34 26.2383C42.2055 26.0978 42.0426 25.9858 41.8617 25.9092C41.6808 25.8327 41.4856 25.7932 41.2883 25.7933H11.9423C11.8023 25.7933 11.6653 25.8332 11.5482 25.908C11.4311 25.9828 11.339 26.0893 11.2832 26.2144C11.2274 26.3395 11.2103 26.4778 11.234 26.6122C11.2578 26.7466 11.3213 26.8714 11.4169 26.9711L17.612 33.4389C17.7463 33.579 17.9085 33.6908 18.0889 33.7673C18.2693 33.8438 18.4638 33.8835 18.6606 33.8838H48.005C48.145 33.8838 48.282 33.844 48.3991 33.7692C48.5161 33.6944 48.6082 33.5879 48.6642 33.4628C48.7199 33.3377 48.737 33.1994 48.7132 33.065C48.6895 32.9306 48.626 32.8058 48.5306 32.706L42.34 26.2383ZM11.9423 21.5925H41.2883C41.4856 21.5926 41.6808 21.5531 41.8617 21.4766C42.0426 21.4 42.2055 21.288 42.34 21.1475L48.5306 14.6797C48.626 14.58 48.6895 14.4553 48.7132 14.3208C48.737 14.1864 48.7199 14.0481 48.6642 13.923C48.6082 13.7979 48.5161 13.6914 48.3991 13.6166C48.282 13.5418 48.145 13.502 48.005 13.502H18.6606C18.4638 13.5023 18.2693 13.5419 18.0889 13.6185C17.9085 13.695 17.7463 13.8068 17.612 13.9469L11.4185 20.4147C11.323 20.5143 11.2595 20.6389 11.2357 20.7732C11.2119 20.9075 11.2289 21.0457 11.2845 21.1707C11.3401 21.2958 11.432 21.4022 11.5488 21.4772C11.6657 21.5521 11.8024 21.5922 11.9423 21.5925Z" fill="url(#paint0_linear_366_4016)"/>
<defs>
<linearGradient id="paint0_linear_366_4016" x1="14.3891" y1="46.9539" x2="44.2657" y2="12.3821" gradientUnits="userSpaceOnUse">
<stop offset="0.08" stop-color="#9945FF"/>
<stop offset="0.3" stop-color="#8752F3"/>
<stop offset="0.5" stop-color="#5497D5"/>
<stop offset="0.6" stop-color="#43B4CA"/>
<stop offset="0.72" stop-color="#28E0B9"/>
<stop offset="0.97" stop-color="#19FB9B"/>
</linearGradient>
</defs>
</svg>
