<svg width="60" height="60" viewBox="0 0 60 60" fill="none" xmlns="http://www.w3.org/2000/svg">
<path d="M30 59.9999C46.5685 59.9999 60 46.5684 60 29.9999C60 13.4314 46.5685 0 30 0C13.4315 0 0 13.4314 0 29.9999C0 46.5684 13.4315 59.9999 30 59.9999Z" fill="#4CA3FF"/>
<path fill-rule="evenodd" clip-rule="evenodd" d="M40.9207 26.2677L40.9199 26.2697C42.7557 28.5716 43.8528 31.4872 43.8528 34.6584C43.8528 37.8767 42.7228 40.8318 40.8375 43.1494L40.6751 43.3489L40.6321 43.0953C40.5955 42.8796 40.5524 42.6619 40.5025 42.4424C39.5589 38.2967 36.4847 34.7417 31.4248 31.8633C28.008 29.9249 26.0522 27.5908 25.5387 24.9388C25.2071 23.224 25.4536 21.5015 25.9301 20.0261C26.4064 18.5513 27.115 17.3156 27.717 16.5716L27.7174 16.5711L29.6857 14.1643C30.0309 13.7423 30.6768 13.7423 31.022 14.1643L40.9207 26.2677ZM44.0339 23.8632L44.0342 23.8623L30.8414 7.731C30.5896 7.423 30.118 7.423 29.8661 7.731L16.6731 23.8625L16.6735 23.8634L16.6306 23.9166C14.2028 26.9292 12.75 30.7576 12.75 34.9251C12.75 44.6313 20.6313 52.4999 30.3538 52.4999C40.0762 52.4999 47.9575 44.6313 47.9575 34.9251C47.9575 30.7577 46.5047 26.9292 44.0769 23.9166L44.0339 23.8632ZM19.8298 26.2158L19.8304 26.2151L21.0104 24.7722L21.046 25.0386C21.0743 25.2496 21.1085 25.4617 21.1492 25.6747C21.9127 29.6807 24.6402 33.021 29.2003 35.608C33.1642 37.864 35.472 40.4581 36.137 43.3033C36.4145 44.4906 36.4639 45.6589 36.3438 46.6803L36.3363 46.7435L36.2792 46.7714C34.4901 47.6454 32.479 48.1359 30.3534 48.1359C22.898 48.1359 16.8539 42.102 16.8539 34.6584C16.8539 31.4625 17.9681 28.526 19.8298 26.2158Z" fill="white"/>
</svg>
