<svg width="60" height="60" viewBox="0 0 60 60" fill="none" xmlns="http://www.w3.org/2000/svg">
<g clip-path="url(#clip0_366_4086)">
<rect width="60" height="60" rx="30" fill="white"/>
<path d="M59.1082 37.2405C55.1051 53.3021 38.8374 63.1099 22.7463 59.1043C6.68459 55.0889 -3.10744 38.8211 0.895711 22.7595C4.89886 6.69789 21.1568 -3.1099 37.2086 0.895683C53.3096 4.85218 63.1016 21.1691 59.1082 37.2405Z" fill="#FF060A"/>
<path d="M47.8793 25.9242C46.1215 24.3012 43.6899 21.8227 41.7095 20.0649L41.5923 19.9828C41.3973 19.8263 41.1775 19.7035 40.9419 19.6196C36.1666 18.729 13.9424 14.5747 13.5088 14.6275C13.3873 14.6445 13.2712 14.6885 13.1689 14.7564L13.0576 14.8442C12.9205 14.9835 12.8164 15.1516 12.7529 15.3364L12.7236 15.4126V15.8286V15.8931C15.2255 22.8598 25.1043 45.6817 27.0496 51.0371C27.1668 51.4004 27.3894 52.0918 27.8054 52.127H27.8992C28.1218 52.127 29.071 50.8731 29.071 50.8731C29.071 50.8731 46.0395 30.2952 47.7563 28.1038C47.9785 27.8339 48.1747 27.5436 48.3422 27.2367C48.385 26.9965 48.3648 26.7494 48.2837 26.5194C48.2026 26.2894 48.0632 26.0843 47.8793 25.9242ZM33.4245 28.3206L40.6665 22.3148L44.9145 26.2289L33.4245 28.3206ZM30.612 27.9281L18.1435 17.7094L38.317 21.4301L30.612 27.9281ZM31.737 30.6058L44.4985 28.5491L29.9089 46.127L31.737 30.6058ZM16.4501 18.729L29.5691 29.8616L27.6707 46.1388L16.4501 18.729Z" fill="white"/>
</g>
<defs>
<clipPath id="clip0_366_4086">
<rect width="60" height="60" rx="30" fill="white"/>
</clipPath>
</defs>
</svg>
