<svg width="634" height="358" viewBox="0 0 634 358" fill="none" xmlns="http://www.w3.org/2000/svg">
<path d="M13.7391 1.24284L0.632324 100.643L122.368 117.387L135.475 17.9871L13.7391 1.24284Z" fill="#EBEBEB"/>
<path d="M135.478 17.9902L134.876 17.9204L133.153 17.7108L126.533 16.8308L101.6 13.4922L13.6827 1.56261L14.0383 1.28324C10.154 30.8697 5.68154 64.8004 0.962904 100.687L0.662004 100.268L122.389 117.031L122.061 117.296L131.717 45.2159C132.893 36.5411 133.823 29.7382 134.452 25.0865C134.762 22.7676 135.009 20.9935 135.191 19.7643C135.355 18.5629 135.464 17.9343 135.464 17.9343C135.464 17.9343 135.464 18.535 135.259 19.7224L134.616 25.0725C134.015 29.7242 133.153 36.5131 132.045 45.1739C129.788 62.5654 126.574 87.4582 122.663 117.478V117.771H122.375L0.648335 101.092H0.292725V100.729L13.4365 1.33911V1.01782H13.7511L101.832 13.2966L126.711 16.6911L133.249 17.627L134.917 17.8784L135.478 17.9902Z" fill="#263238"/>
<path d="M17.118 8.08674L5.66138 94.972L118.844 110.54L130.301 23.6546L17.118 8.08674Z" fill="#3468AA"/>
<path d="M5.65405 94.9596L52.307 46.3893L72.3441 83.5609L91.328 67.7759L118.833 110.535L5.65405 94.9596Z" fill="#3468AA"/>
<path d="M88.0184 44.629C87.781 46.4275 87.0268 48.1137 85.8513 49.4745C84.6757 50.8353 83.1315 51.8096 81.4139 52.2742C79.6963 52.7389 77.8823 52.673 76.2014 52.085C74.5204 51.497 73.0479 50.4131 71.9699 48.9705C70.8919 47.5279 70.2568 45.7913 70.145 43.9801C70.0332 42.1689 70.4496 40.3646 71.3416 38.7951C72.2336 37.2256 73.5612 35.9614 75.1565 35.1624C76.7519 34.3633 78.5433 34.0653 80.3045 34.3059C81.4757 34.464 82.6047 34.8568 83.6269 35.4618C84.649 36.0667 85.5442 36.8718 86.2609 37.831C86.9776 38.7901 87.5018 39.8844 87.8034 41.051C88.105 42.2176 88.1781 43.4335 88.0184 44.629Z" fill="#3468AA"/>
<g opacity="0.2">
<path d="M5.65405 94.9596L52.307 46.3893L72.3441 83.5609L91.328 67.7759L118.833 110.535L5.65405 94.9596Z" fill="black"/>
</g>
<g opacity="0.2">
<path d="M88.0184 44.629C87.781 46.4275 87.0268 48.1137 85.8513 49.4745C84.6757 50.8353 83.1315 51.8096 81.4139 52.2742C79.6963 52.7389 77.8823 52.673 76.2014 52.085C74.5204 51.497 73.0479 50.4131 71.9699 48.9705C70.8919 47.5279 70.2568 45.7913 70.145 43.9801C70.0332 42.1689 70.4496 40.3646 71.3416 38.7951C72.2336 37.2256 73.5612 35.9614 75.1565 35.1624C76.7519 34.3633 78.5433 34.0653 80.3045 34.3059C81.4757 34.464 82.6047 34.8568 83.6269 35.4618C84.649 36.0667 85.5442 36.8718 86.2609 37.831C86.9776 38.7901 87.5018 39.8844 87.8034 41.051C88.105 42.2176 88.1781 43.4335 88.0184 44.629Z" fill="black"/>
</g>
<path d="M621.142 0.598755H118.628V336.638H621.142V0.598755Z" fill="#FAFAFA"/>
<path d="M622.701 24.2343C622.701 24.4299 510.192 24.5975 371.437 24.5975C232.682 24.5975 120.173 24.4299 120.173 24.2343C120.173 24.0387 232.655 23.8711 371.437 23.8711C510.22 23.8711 622.701 24.0387 622.701 24.2343Z" fill="#263238"/>
<path d="M136.435 13.2687C136.435 13.8516 136.266 14.4215 135.949 14.9062C135.632 15.3909 135.181 15.7687 134.654 15.9918C134.127 16.2148 133.546 16.2732 132.986 16.1595C132.427 16.0458 131.912 15.765 131.509 15.3528C131.105 14.9406 130.83 14.4154 130.719 13.8437C130.608 13.2719 130.665 12.6793 130.883 12.1407C131.102 11.6021 131.472 11.1418 131.946 10.8179C132.421 10.4941 132.979 10.3212 133.549 10.3212C133.929 10.3194 134.305 10.3943 134.656 10.5418C135.007 10.6893 135.326 10.9063 135.594 11.1804C135.862 11.4544 136.075 11.7801 136.219 12.1385C136.364 12.497 136.437 12.8811 136.435 13.2687Z" fill="#263238"/>
<path d="M146.83 13.2687C146.83 13.8516 146.661 14.4215 146.344 14.9062C146.027 15.3909 145.576 15.7687 145.049 15.9918C144.521 16.2148 143.941 16.2732 143.381 16.1595C142.821 16.0458 142.307 15.765 141.904 15.3528C141.5 14.9406 141.225 14.4154 141.114 13.8437C141.002 13.2719 141.06 12.6793 141.278 12.1407C141.496 11.6021 141.866 11.1418 142.341 10.8179C142.816 10.4941 143.373 10.3212 143.944 10.3212C144.324 10.3194 144.7 10.3943 145.051 10.5418C145.402 10.6893 145.721 10.9063 145.989 11.1804C146.257 11.4544 146.47 11.7801 146.614 12.1385C146.759 12.497 146.832 12.8811 146.83 13.2687Z" fill="#263238"/>
<path d="M157.252 13.2687C157.252 13.8522 157.083 14.4226 156.765 14.9076C156.447 15.3926 155.996 15.7704 155.468 15.9931C154.94 16.2157 154.359 16.2733 153.799 16.1584C153.238 16.0436 152.724 15.7615 152.321 15.3478C151.918 14.9342 151.644 14.4077 151.535 13.8351C151.425 13.2624 151.484 12.6693 151.704 12.131C151.925 11.5927 152.297 11.1333 152.773 10.8111C153.25 10.4889 153.809 10.3184 154.38 10.3212C154.759 10.3212 155.133 10.3975 155.483 10.5458C155.832 10.6941 156.149 10.9115 156.416 11.1853C156.683 11.4592 156.894 11.7843 157.038 12.1418C157.181 12.4993 157.254 12.8823 157.252 13.2687Z" fill="#263238"/>
<path d="M457.891 42.0449H286.392V51.7115H457.891V42.0449Z" fill="#EBEBEB"/>
<path d="M594.553 312.583C594.553 310.39 594.457 218.823 594.293 68.7676L594.553 69.033L143.999 69.1308L144.368 68.7676C144.368 154.859 144.368 237.332 144.368 312.583L144.026 312.234L594.621 312.583L144.026 312.918H143.698V312.583C143.698 237.332 143.698 154.859 143.698 68.7676V68.3765H144.095L594.649 68.4603H594.922V68.7397C594.662 218.823 594.567 310.39 594.553 312.583Z" fill="#263238"/>
<path d="M199.432 312.08C199.227 312.08 199.227 257.503 199.432 190.187C199.638 122.87 199.938 68.2788 200.13 68.2788C200.321 68.2788 200.335 122.856 200.13 190.187C199.925 257.517 199.624 312.08 199.432 312.08Z" fill="#263238"/>
<path d="M266.273 312.276C266.082 312.276 266.082 257.699 266.273 190.382C266.464 123.065 266.779 68.4744 266.971 68.4744C267.162 68.4744 267.176 123.051 266.971 190.382C266.765 257.713 266.478 312.276 266.273 312.276Z" fill="#263238"/>
<path d="M333.127 312.485C332.922 312.485 332.922 257.894 333.127 190.577C333.332 123.261 333.633 68.6697 333.825 68.6697C334.016 68.6697 334.03 123.247 333.825 190.577C333.62 257.908 333.319 312.485 333.127 312.485Z" fill="#263238"/>
<path d="M399.968 312.681C399.776 312.681 399.776 258.09 399.968 190.773C400.159 123.456 400.474 68.8655 400.665 68.8655C400.857 68.8655 400.871 123.443 400.665 190.787C400.46 258.132 400.173 312.681 399.968 312.681Z" fill="#263238"/>
<path d="M466.877 312.835C466.671 312.835 466.671 258.258 466.877 190.941C467.082 123.624 467.383 69.0331 467.574 69.0331C467.766 69.0331 467.779 123.596 467.574 190.941C467.369 258.286 467.013 312.835 466.877 312.835Z" fill="#263238"/>
<path d="M533.662 313.072C533.471 313.072 533.471 258.495 533.662 191.178C533.854 123.862 534.168 69.2705 534.36 69.2705C534.551 69.2705 534.565 123.834 534.36 191.178C534.155 258.523 533.895 313.072 533.662 313.072Z" fill="#263238"/>
<path d="M594.553 127.717C594.553 127.913 493.807 128.08 369.536 128.08C245.265 128.08 144.491 127.913 144.491 127.717C144.491 127.522 245.237 127.354 369.536 127.354C493.834 127.354 594.553 127.508 594.553 127.717Z" fill="#263238"/>
<path d="M594.553 190.187C594.553 190.382 493.807 190.55 369.536 190.55C245.265 190.55 144.491 190.382 144.491 190.187C144.491 189.991 245.237 189.823 369.536 189.823C493.834 189.823 594.553 189.977 594.553 190.187Z" fill="#263238"/>
<path d="M594.553 252.642C594.553 252.852 493.807 253.005 369.536 253.005C245.265 253.005 144.491 252.852 144.491 252.642C144.491 252.432 245.237 252.279 369.536 252.279C493.834 252.279 594.553 252.446 594.553 252.642Z" fill="#263238"/>
<path d="M148.485 258.202C148.485 258.202 143.151 293.571 148.704 315.614L202.045 313.631C202.045 313.631 191.103 278.443 198.037 260.856L148.485 258.202Z" fill="#EBEBEB"/>
<path d="M148.704 256.958C148.704 256.958 149.059 300.416 151.22 313.673L204.562 311.089C204.562 311.089 199.87 268.371 201.676 256.958H148.704Z" fill="#3468AA"/>
<path d="M193.661 275.118C193.661 275.328 185.66 275.984 175.771 276.585C165.883 277.186 157.868 277.521 157.854 277.325C157.84 277.13 165.842 276.473 175.73 275.859C185.619 275.244 193.647 274.965 193.661 275.118Z" fill="white"/>
<path d="M193.675 284.366C193.675 284.575 185.673 285.232 175.785 285.832C165.896 286.433 157.881 286.768 157.868 286.573C157.854 286.377 165.855 285.721 175.744 285.106C185.632 284.491 193.661 284.17 193.675 284.366Z" fill="white"/>
<path d="M184.607 293.404C183.633 293.672 182.633 293.822 181.625 293.851C179.792 294.032 177.235 294.228 174.417 294.395C171.6 294.563 169.056 294.689 167.209 294.731C166.207 294.833 165.197 294.81 164.2 294.661C165.169 294.394 166.165 294.244 167.168 294.214C169.015 294.046 171.559 293.851 174.376 293.669C177.194 293.488 179.751 293.376 181.598 293.334C182.6 293.242 183.609 293.266 184.607 293.404Z" fill="white"/>
<path d="M270.582 74.8861C270.582 74.8861 266.205 111.695 271.758 133.738L324.183 130.944C324.183 130.944 313.241 95.0574 320.079 77.4704L270.582 74.8861Z" fill="#EBEBEB"/>
<path d="M270.8 73.587C270.8 73.587 271.156 117.045 273.317 130.301L326.658 127.717C326.658 127.717 321.967 84.9997 323.772 73.587H270.8Z" fill="#3468AA"/>
<path d="M315.757 91.8443C315.757 92.0399 307.756 92.6964 297.881 93.2412C288.006 93.786 279.964 94.1772 279.95 93.9676C279.937 93.7581 287.938 93.1155 297.826 92.5707C307.715 92.0259 315.743 91.6348 315.757 91.8443Z" fill="white"/>
<path d="M315.771 101.05C315.771 101.246 307.784 101.902 297.895 102.447C288.006 102.992 279.978 103.397 279.964 103.187C279.95 102.978 287.952 102.335 297.854 101.721C307.756 101.106 315.757 100.84 315.771 101.05Z" fill="white"/>
<path d="M306.703 110.088C305.733 110.346 304.737 110.491 303.735 110.521C301.889 110.703 299.345 110.898 296.527 111.066C293.71 111.234 291.152 111.359 289.306 111.415C288.303 111.516 287.292 111.488 286.297 111.331C287.271 111.073 288.272 110.928 289.278 110.898C291.111 110.717 293.669 110.521 296.486 110.354C299.304 110.186 301.848 110.06 303.694 110.004C304.696 109.903 305.708 109.931 306.703 110.088Z" fill="white"/>
<path d="M340.828 255.771C340.828 255.771 336.519 296.016 342.059 318.059L394.716 315.698C394.716 315.698 383.432 275.998 390.367 258.425L340.828 255.771Z" fill="#EBEBEB"/>
<path d="M341.046 254.472C341.046 254.472 341.402 297.93 343.563 311.186L396.904 308.602C396.904 308.602 392.213 265.885 394.018 254.472H341.046Z" fill="#3468AA"/>
<path d="M386.003 272.729C386.003 272.925 378.002 273.582 368.127 274.126C358.252 274.671 350.21 275.076 350.196 274.867C350.183 274.657 358.184 274.015 368.072 273.4C377.961 272.785 385.99 272.52 386.003 272.729Z" fill="white"/>
<path d="M386.017 281.935C386.017 282.131 378.016 282.787 368.141 283.332C358.266 283.877 350.224 284.268 350.21 284.072C350.197 283.877 358.198 283.22 368.086 282.605C377.975 281.991 386.003 281.725 386.017 281.935Z" fill="white"/>
<path d="M376.949 290.973C375.974 291.231 374.974 291.376 373.968 291.406C372.135 291.588 369.591 291.783 366.773 291.951C363.956 292.118 361.398 292.244 359.552 292.3C358.549 292.393 357.539 292.365 356.543 292.216C357.513 291.959 358.509 291.813 359.511 291.783C361.357 291.602 363.901 291.406 366.719 291.224C369.536 291.043 372.094 290.945 373.94 290.889C374.943 290.787 375.954 290.816 376.949 290.973Z" fill="white"/>
<path d="M541.937 133.305C541.937 133.305 536.466 167.864 542.006 189.893L595.47 188.72C595.47 188.72 584.528 153.532 591.462 135.945L541.937 133.305Z" fill="#EBEBEB"/>
<path d="M542.101 132.019C542.101 132.019 542.457 175.463 544.618 188.72L597.959 186.149C597.959 186.149 593.267 143.432 595.073 132.019H542.101Z" fill="#3468AA"/>
<path d="M587.099 150.263C587.099 150.473 579.112 151.115 569.223 151.66C559.335 152.205 551.306 152.596 551.292 152.4C551.279 152.205 559.28 151.534 569.182 151.003C579.085 150.473 587.086 150.067 587.099 150.263Z" fill="white"/>
<path d="M587.113 159.469C587.113 159.664 579.125 160.321 569.237 160.866C559.348 161.41 551.319 161.801 551.306 161.606C551.292 161.41 559.307 160.74 569.195 160.209C579.084 159.678 587.099 159.273 587.113 159.469Z" fill="white"/>
<path d="M578.045 168.507C577.076 168.776 576.08 168.926 575.077 168.954C573.23 169.121 570.686 169.317 567.869 169.499C565.051 169.68 562.494 169.792 560.647 169.834C559.647 169.949 558.638 169.949 557.638 169.834C558.611 169.566 559.612 169.416 560.62 169.387C562.453 169.205 565.01 169.01 567.828 168.842C570.645 168.674 573.189 168.549 575.049 168.507C576.044 168.382 577.05 168.382 578.045 168.507Z" fill="white"/>
<path d="M406.478 196.626C406.478 196.626 401.007 231.186 406.547 253.229L460.011 252.055C460.011 252.055 449.069 216.867 456.003 199.266L406.478 196.626Z" fill="#EBEBEB"/>
<path d="M406.697 195.341C406.697 195.341 407.053 238.799 409.214 252.055L462.555 249.471C462.555 249.471 457.863 206.754 459.669 195.341H406.697Z" fill="#3468AA"/>
<path d="M451.64 213.654C451.64 213.864 443.653 214.52 433.764 215.121C423.876 215.722 415.847 216.057 415.834 215.862C415.82 215.666 423.821 215.009 433.723 214.395C443.626 213.78 451.627 213.389 451.64 213.654Z" fill="white"/>
<path d="M451.654 222.79C451.654 223 443.666 223.656 433.778 224.257C423.889 224.858 415.861 225.193 415.847 224.997C415.833 224.802 423.848 224.145 433.737 223.531C443.625 222.916 451.64 222.595 451.654 222.79Z" fill="white"/>
<path d="M442.586 231.814C441.617 232.081 440.621 232.231 439.618 232.261C437.771 232.443 435.227 232.638 432.41 232.806C429.592 232.974 427.035 233.099 425.188 233.141C424.186 233.242 423.176 233.218 422.179 233.071C423.153 232.803 424.153 232.653 425.161 232.624C426.994 232.457 429.551 232.247 432.369 232.079C435.186 231.912 437.73 231.786 439.577 231.744C440.579 231.651 441.589 231.675 442.586 231.814Z" fill="white"/>
<path d="M529.792 146.254L501.466 161.145L487.762 159.161L495.093 145.891L524.977 135.135L529.792 146.254Z" fill="#EBEBEB"/>
<path d="M486.585 156.423L493.533 145.011L524.225 133.626L530.394 146.016L500.632 158.155L486.585 156.423Z" fill="#455A64"/>
<path d="M520.778 141.015C519.83 141.577 518.832 142.044 517.797 142.412C515.937 143.195 513.352 144.228 510.479 145.346L503.107 148.14C501.234 148.838 499.989 149.257 500.071 149.215C499.839 148.922 504.503 146.882 510.22 144.647C515.937 142.412 520.696 140.764 520.778 141.015Z" fill="white"/>
<path d="M515.978 146.603C511.745 149.126 507.118 150.884 502.301 151.8C504.526 150.767 506.809 149.872 509.139 149.118C511.369 148.144 513.652 147.304 515.978 146.603Z" fill="white"/>
<path d="M148.663 131.321C148.663 131.321 143.739 179.989 150.291 190.187L199.775 187.113L197.149 133.053L148.663 131.321Z" fill="#E0E0E0"/>
<path d="M148.663 131.321C148.663 131.321 149.005 173.661 151.125 186.569L203.098 184.054C203.098 184.054 198.53 142.44 200.294 131.321H148.663Z" fill="#455A64"/>
<path d="M174.267 137.314H174.458H175.019C175.741 137.284 176.464 137.322 177.18 137.426C178.325 137.589 179.44 137.923 180.49 138.417C181.874 139.119 183.099 140.109 184.087 141.323C185.279 142.816 186.13 144.563 186.576 146.436C186.975 148.634 186.786 150.903 186.029 153.001C185.641 154.139 185.151 155.238 184.566 156.284C183.95 157.355 183.393 158.46 182.897 159.594C181.867 161.995 181.163 164.528 180.804 167.124V167.305H180.64L175.511 167.389L170.123 167.473H169.931V167.277C169.705 164.687 168.849 162.195 167.442 160.027C166.813 158.938 166.074 157.918 165.5 156.884C164.828 155.909 164.215 154.892 163.667 153.839C162.71 151.832 162.427 149.559 162.86 147.371C163.162 145.489 163.842 143.692 164.857 142.091C165.735 140.798 166.897 139.731 168.249 138.976C169.25 138.41 170.322 137.987 171.436 137.719C172.132 137.544 172.841 137.422 173.556 137.356H174.308H174.116H173.569C172.862 137.438 172.162 137.578 171.477 137.775C170.38 138.063 169.327 138.5 168.345 139.074C167.041 139.832 165.923 140.883 165.076 142.147C164.093 143.726 163.442 145.495 163.161 147.344C162.76 149.465 163.048 151.663 163.982 153.602C164.528 154.639 165.135 155.642 165.801 156.605C166.43 157.625 167.168 158.645 167.756 159.748C169.213 161.969 170.098 164.53 170.328 167.194L170.136 166.998L175.511 166.9L180.64 166.83L180.463 166.998C180.816 164.361 181.534 161.788 182.596 159.357C183.104 158.214 183.67 157.1 184.292 156.018C184.87 154.995 185.355 153.919 185.742 152.805C186.492 150.769 186.691 148.564 186.316 146.422C185.89 144.59 185.073 142.878 183.923 141.407C182.967 140.212 181.78 139.232 180.435 138.529C179.409 138.024 178.318 137.671 177.194 137.481C176.489 137.361 175.775 137.3 175.06 137.3H174.308L174.267 137.314Z" fill="white"/>
<path d="M176.92 166.802V166.635V166.146L176.633 164.246C176.4 162.598 176.058 160.209 175.826 157.261C175.826 156.507 175.717 155.739 175.689 154.929C175.662 154.118 175.621 153.266 175.689 152.386C175.706 151.471 175.902 150.569 176.264 149.732C176.66 148.832 177.366 148.112 178.247 147.707C178.72 147.509 179.239 147.456 179.741 147.552C180.243 147.649 180.708 147.892 181.078 148.251C181.453 148.618 181.674 149.119 181.693 149.648C181.677 150.201 181.49 150.733 181.16 151.171C180.825 151.611 180.394 151.965 179.902 152.205C179.412 152.448 178.892 152.621 178.356 152.722C177.281 152.958 176.187 153.089 175.087 153.113C173.982 153.16 172.874 153.109 171.778 152.959C171.24 152.871 170.715 152.712 170.218 152.484C169.704 152.266 169.239 151.942 168.851 151.534C168.478 151.149 168.217 150.665 168.098 150.137C167.984 149.606 168.046 149.05 168.276 148.559C168.501 148.077 168.89 147.695 169.37 147.483C169.602 147.376 169.854 147.32 170.109 147.32C170.364 147.32 170.615 147.376 170.847 147.483C171.291 147.696 171.673 148.024 171.955 148.433C172.224 148.859 172.409 149.333 172.502 149.83C172.667 150.724 172.754 151.631 172.762 152.54C172.858 154.286 172.94 155.92 173.022 157.401C173.159 160.377 173.282 162.779 173.364 164.386C173.364 165.21 173.364 165.852 173.446 166.299V166.802V166.97C173.443 166.914 173.443 166.858 173.446 166.802V166.299C173.446 165.852 173.378 165.21 173.323 164.386C173.227 162.723 173.091 160.321 172.926 157.401C172.844 155.906 172.762 154.286 172.667 152.54C172.642 151.64 172.551 150.743 172.393 149.858C172.293 149.404 172.112 148.974 171.86 148.587C171.602 148.192 171.242 147.878 170.82 147.679C170.609 147.571 170.379 147.51 170.143 147.498C169.908 147.486 169.673 147.524 169.452 147.609C169.009 147.805 168.652 148.164 168.454 148.615C168.232 149.068 168.17 149.586 168.276 150.081C168.381 150.609 168.633 151.094 169.001 151.478C169.73 152.249 170.695 152.742 171.736 152.875C172.82 153.025 173.913 153.076 175.005 153.029C176.099 153.003 177.189 152.877 178.26 152.652C178.78 152.539 179.284 152.365 179.765 152.135C180.236 151.91 180.648 151.575 180.969 151.157C181.27 150.754 181.442 150.266 181.461 149.76C181.471 149.5 181.426 149.24 181.329 148.999C181.233 148.758 181.086 148.541 180.9 148.363C180.553 148.021 180.116 147.79 179.642 147.698C179.168 147.606 178.679 147.658 178.233 147.846C177.388 148.234 176.712 148.925 176.332 149.788C175.974 150.607 175.775 151.49 175.744 152.386C175.744 153.266 175.744 154.104 175.744 154.915C175.744 155.725 175.744 156.507 175.867 157.247C176.086 160.209 176.414 162.598 176.619 164.232C176.729 165.056 176.824 165.629 176.879 166.132L176.947 166.635C176.941 166.691 176.932 166.747 176.92 166.802Z" fill="white"/>
<path d="M170.081 167.082C170.081 167.082 170.15 167.738 170.218 168.842C170.286 169.945 170.369 171.636 170.451 173.438V173.326L173.952 177.517L173.774 177.447L177.877 177.209L177.7 177.293L179.71 174.779L180.722 173.535V173.689C180.722 171.273 180.626 168.982 180.572 166.886L180.791 167.096L173.241 167.18H171.052C170.779 167.199 170.505 167.199 170.232 167.18C170.473 167.156 170.716 167.156 170.957 167.18L173.09 167.068L180.777 166.76H180.996V166.984C180.996 169.079 181.119 171.37 181.187 173.787V173.885H181.119C180.791 174.29 180.449 174.709 180.12 175.142C179.423 175.994 178.753 176.832 178.096 177.642L178.028 177.726H177.918L173.815 177.922H173.706V177.838L170.273 173.647V173.577C170.273 171.747 170.273 170.183 170.273 168.87C170.081 167.641 170.081 167.054 170.081 167.082Z" fill="white"/>
<path d="M180.531 173.061C180.398 173.018 180.27 172.962 180.148 172.893C179.902 172.781 179.546 172.627 179.095 172.474C177.92 172.063 176.684 171.869 175.443 171.901C174.202 171.941 172.979 172.211 171.832 172.697C171.481 172.84 171.139 173.003 170.806 173.186L170.437 173.368C170.541 173.275 170.656 173.195 170.779 173.13C171.098 172.924 171.432 172.742 171.777 172.586C172.933 172.061 174.178 171.772 175.443 171.733C176.702 171.701 177.955 171.914 179.136 172.362C179.493 172.496 179.84 172.654 180.175 172.837C180.303 172.895 180.422 172.971 180.531 173.061Z" fill="white"/>
<path d="M180.531 171.412L180.148 171.245C179.902 171.133 179.546 170.979 179.095 170.812C177.919 170.406 176.683 170.217 175.443 170.253C174.202 170.293 172.979 170.563 171.832 171.049C171.479 171.186 171.136 171.349 170.806 171.538C170.69 171.612 170.566 171.673 170.437 171.719C170.437 171.719 170.546 171.622 170.779 171.482C171.095 171.27 171.429 171.088 171.777 170.937C174.106 169.878 176.75 169.797 179.136 170.714C179.494 170.844 179.841 171.003 180.175 171.189C180.303 171.247 180.422 171.322 180.531 171.412Z" fill="white"/>
<path d="M180.435 169.834C180.302 169.791 180.174 169.735 180.052 169.666C179.806 169.554 179.45 169.401 178.999 169.247C177.825 168.836 176.588 168.642 175.347 168.674C174.106 168.715 172.883 168.984 171.736 169.47C171.385 169.613 171.043 169.776 170.711 169.959L170.341 170.155C170.341 170.155 170.451 170.043 170.683 169.904C171.005 169.702 171.339 169.52 171.682 169.359C174.01 168.299 176.654 168.219 179.04 169.135C179.396 169.271 179.743 169.43 180.079 169.61C180.207 169.669 180.327 169.744 180.435 169.834Z" fill="white"/>
<path d="M279.39 247.515C279.458 247.515 279.39 248.172 278.719 248.912C277.883 249.829 276.861 250.549 275.724 251.022C274.189 251.821 272.459 252.146 270.746 251.957C270.746 251.734 272.948 251.455 275.437 250.351C276.498 249.918 277.483 249.309 278.35 248.549C279.007 247.962 279.28 247.473 279.39 247.515Z" fill="#3468AA"/>
<path d="M622.701 336.582C622.701 334.221 622.591 205.58 622.413 0.542885L622.701 0.836234H120.228L120.584 0.473036C120.584 119.964 120.584 233.672 120.584 336.512L120.255 336.177L622.769 336.512L120.255 336.847H119.927V336.582C119.927 233.742 119.927 120.062 119.927 0.542885V0.179688H120.324H622.796H623.07V0.473036C622.796 205.594 622.701 334.235 622.701 336.582Z" fill="#263238"/>
<path d="M579.084 286.182L569.209 268.972L559.84 286.182H426.885V357.172H633.916V286.182H579.084Z" fill="#3468AA"/>
<path d="M464.141 322.292C465.974 321.486 467.534 320.149 468.629 318.445C469.723 316.741 470.303 314.747 470.296 312.709C470.328 310.116 469.351 307.615 467.579 305.758C465.806 303.9 463.384 302.838 460.845 302.805C458.306 302.772 455.857 303.77 454.039 305.58C452.22 307.39 451.18 309.864 451.148 312.457C451.092 314.511 451.632 316.535 452.701 318.275C453.769 320.015 455.318 321.393 457.152 322.236C442.422 324.373 442.955 340.773 442.955 340.773L477.75 341.234C477.75 341.234 478.68 324.68 464.141 322.292Z" fill="#FAFAFA"/>
<path d="M610.296 307.247C610.296 307.457 583.871 307.61 551.279 307.61C518.686 307.61 492.261 307.457 492.261 307.247C492.261 307.037 518.686 306.884 551.279 306.884C583.871 306.884 610.296 307.023 610.296 307.247Z" fill="#FAFAFA"/>
<path d="M610.296 318.045C610.296 318.241 583.871 318.408 551.279 318.408C518.686 318.408 492.261 318.241 492.261 318.045C492.261 317.85 518.686 317.682 551.279 317.682C583.871 317.682 610.296 317.85 610.296 318.045Z" fill="#FAFAFA"/>
<path d="M610.296 328.871C610.296 329.067 583.871 329.234 551.279 329.234C518.686 329.234 492.261 329.067 492.261 328.871C492.261 328.675 518.686 328.508 551.279 328.508C583.871 328.508 610.296 328.675 610.296 328.871Z" fill="#FAFAFA"/>
<path d="M551.279 339.585C551.279 339.781 538.066 339.949 521.777 339.949C505.487 339.949 492.261 339.781 492.261 339.585C492.261 339.39 505.474 339.222 521.777 339.222C538.08 339.222 551.279 339.376 551.279 339.585Z" fill="#FAFAFA"/>
</svg>
