<svg width="529" height="382" viewBox="0 0 529 382" fill="none" xmlns="http://www.w3.org/2000/svg">
<path d="M120.739 213.243L61.9526 213.225L61.9162 213.206L32.5503 162.275L91.3367 162.293L120.739 213.243Z" fill="url(#paint0_linear_310_6777)"/>
<path d="M120.739 213.243L91.3186 264.156H32.4958L61.9163 213.206L61.9527 213.224L120.739 213.243Z" fill="url(#paint1_linear_310_6777)"/>
<path d="M61.9165 213.206L32.4961 264.156L3.13013 213.188L32.5506 162.275L61.9165 213.206Z" fill="url(#paint2_linear_310_6777)"/>
<path d="M119.339 19.3552L106.702 76.7779L106.684 76.796L50.6248 94.5611L63.2621 37.1384L119.339 19.3552Z" fill="url(#paint3_linear_310_6777)"/>
<path d="M119.339 19.3552L162.761 59.0128L150.124 116.472L106.684 76.796L106.702 76.7779L119.339 19.3552Z" fill="url(#paint4_linear_310_6777)"/>
<path d="M106.684 76.7961L150.123 116.472L94.0463 134.219L50.6248 94.5612L106.684 76.7961Z" fill="url(#paint5_linear_310_6777)"/>
<path d="M274.042 281.266L218.401 262.228L218.383 262.21L207.055 204.515L262.696 223.552L274.042 281.266Z" fill="url(#paint6_linear_310_6777)"/>
<path d="M274.042 281.266L229.729 319.942L174.071 300.904L218.383 262.21L218.401 262.228L274.042 281.266Z" fill="url(#paint7_linear_310_6777)"/>
<path d="M218.383 262.21L174.07 300.904L162.76 243.172L207.055 204.515L218.383 262.21Z" fill="url(#paint8_linear_310_6777)"/>
<path d="M189.763 188.496H160.361L160.342 188.478L145.65 163.021H175.053L189.763 188.496Z" fill="url(#paint9_linear_310_6777)"/>
<path d="M189.763 188.495L175.053 213.952H145.632L160.343 188.477L160.361 188.495H189.763Z" fill="url(#paint10_linear_310_6777)"/>
<path d="M160.342 188.478L145.632 213.952L130.94 188.478L145.65 163.021L160.342 188.478Z" fill="url(#paint11_linear_310_6777)"/>
<path d="M189.054 91.5608L182.744 120.272L182.726 120.29L154.706 129.164L161.015 100.452L189.054 91.5608Z" fill="url(#paint12_linear_310_6777)"/>
<path d="M189.054 91.5608L210.764 111.399L204.437 140.128L182.726 120.29L182.744 120.272L189.054 91.5608Z" fill="url(#paint13_linear_310_6777)"/>
<path d="M182.726 120.29L204.437 140.128L176.416 149.002L154.706 129.164L182.726 120.29Z" fill="url(#paint14_linear_310_6777)"/>
<path d="M146.686 273.102L130.94 297.922V297.94L101.556 296.722L117.302 271.884L146.686 273.102Z" fill="url(#paint15_linear_310_6777)"/>
<path d="M146.686 273.102L160.324 299.158L144.577 323.996L130.94 297.94V297.922L146.686 273.102Z" fill="url(#paint16_linear_310_6777)"/>
<path d="M130.94 297.94L144.577 323.997L115.193 322.76L101.556 296.722L130.94 297.94Z" fill="url(#paint17_linear_310_6777)"/>
<path d="M304.663 73.6318L288.934 98.4701H288.916L259.55 97.2519L275.279 72.4136L304.663 73.6318Z" fill="url(#paint18_linear_310_6777)"/>
<path d="M304.662 73.6318L318.3 99.6884L302.553 124.527L288.916 98.4701H288.934L304.662 73.6318Z" fill="url(#paint19_linear_310_6777)"/>
<path d="M288.916 98.47L302.553 124.527L273.169 123.29L259.55 97.2517L288.916 98.47Z" fill="url(#paint20_linear_310_6777)"/>
<path d="M146.686 273.102L130.94 297.922V297.94L101.556 296.722L117.302 271.884L146.686 273.102Z" fill="url(#paint21_linear_310_6777)"/>
<path d="M146.686 273.102L160.324 299.158L144.577 323.996L130.94 297.94V297.922L146.686 273.102Z" fill="url(#paint22_linear_310_6777)"/>
<path d="M130.94 297.94L144.577 323.997L115.193 322.76L101.556 296.722L130.94 297.94Z" fill="url(#paint23_linear_310_6777)"/>
<path d="M332.756 312.723L309.154 330.252H309.136L282.152 318.578L305.753 301.05L332.756 312.723Z" fill="url(#paint24_linear_310_6777)"/>
<path d="M332.756 312.723L336.138 341.926L312.518 359.472L309.135 330.252H309.154L332.756 312.723Z" fill="url(#paint25_linear_310_6777)"/>
<path d="M309.136 330.252L312.518 359.472L285.534 347.78L282.152 318.578L309.136 330.252Z" fill="url(#paint26_linear_310_6777)"/>
<path d="M500.787 290.921L445.147 271.902L445.128 271.883L433.8 214.17L489.441 233.208L500.787 290.921Z" fill="url(#paint27_linear_310_6777)"/>
<path d="M500.787 290.921L456.474 329.597L400.797 310.559L445.128 271.884L445.146 271.902L500.787 290.921Z" fill="url(#paint28_linear_310_6777)"/>
<path d="M445.128 271.883L400.797 310.559L389.487 252.846L433.8 214.17L445.128 271.883Z" fill="url(#paint29_linear_310_6777)"/>
<path d="M360.648 187.95L339.083 223.007L339.065 223.025L297.934 221.861L319.5 186.804L360.648 187.95Z" fill="url(#paint30_linear_310_6777)"/>
<path d="M360.649 187.95L380.232 224.171L358.649 259.246L339.065 223.025L339.083 223.007L360.649 187.95Z" fill="url(#paint31_linear_310_6777)"/>
<path d="M339.065 223.025L358.648 259.246L317.5 258.083L297.935 221.862L339.065 223.025Z" fill="url(#paint32_linear_310_6777)"/>
<path d="M224.947 135.819L254.549 164.421H254.568L244.603 204.37L215.001 175.767L224.947 135.819Z" fill="url(#paint33_linear_310_6777)"/>
<path d="M224.947 135.819L264.514 124.472L294.152 153.075L254.568 164.421H254.549L224.947 135.819Z" fill="url(#paint34_linear_310_6777)"/>
<path d="M254.568 164.421L294.153 153.075L284.17 193.023L244.604 204.37L254.568 164.421Z" fill="url(#paint35_linear_310_6777)"/>
<path d="M414.453 86.6692L382.705 112.871H382.687L344.12 98.4701L375.868 72.2681L414.453 86.6692Z" fill="url(#paint36_linear_310_6777)"/>
<path d="M414.453 86.6692L421.253 127.272L389.487 153.493L382.687 112.871H382.705L414.453 86.6692Z" fill="url(#paint37_linear_310_6777)"/>
<path d="M382.687 112.871L389.487 153.492L350.939 139.073L344.12 98.47L382.687 112.871Z" fill="url(#paint38_linear_310_6777)"/>
<path d="M508.84 122.951L453.494 220.894L454.159 221.27L509.505 123.326L508.84 122.951Z" fill="url(#paint39_linear_310_6777)"/>
<path d="M509.242 123.527L401.961 120.454L401.979 119.708L509.26 122.763L509.242 123.527Z" fill="url(#paint40_linear_310_6777)"/>
<path d="M359.771 223.214L359.448 223.906L400.689 243.198L401.013 242.507L359.771 223.214Z" fill="url(#paint41_linear_310_6777)"/>
<path d="M302.917 124.367L302.192 124.608L328.933 204.993L329.657 204.752L302.917 124.367Z" fill="url(#paint42_linear_310_6777)"/>
<path d="M322.216 238.569L308.707 312.607L309.459 312.744L322.967 238.706L322.216 238.569Z" fill="url(#paint43_linear_310_6777)"/>
<path d="M297.098 336.398L251.149 301.341L251.604 300.741L297.571 335.798L297.098 336.398Z" fill="url(#paint44_linear_310_6777)"/>
<path d="M508.46 118.363C502.623 118.363 502.605 127.436 508.46 127.436C514.315 127.436 514.315 118.363 508.46 118.363Z" fill="white"/>
<path d="M315.813 164.044L289.293 171.699L289.505 172.432L316.024 164.778L315.813 164.044Z" fill="url(#paint45_linear_310_6777)"/>
<path d="M218.947 159.329L196.527 142.855L196.963 142.255L219.383 158.711L218.947 159.329Z" fill="url(#paint46_linear_310_6777)"/>
<path d="M130.235 122.775L129.49 122.942L144.216 188.551L144.961 188.384L130.235 122.775Z" fill="url(#paint47_linear_310_6777)"/>
<path d="M122.794 285.176L78.4084 238.936L78.9539 238.427L123.339 284.648L122.794 285.176Z" fill="url(#paint48_linear_310_6777)"/>
<path d="M131.286 272.629L130.613 272.284L167.634 200.533L185.49 223.371L184.89 223.825L167.761 201.915L131.286 272.629Z" fill="url(#paint49_linear_310_6777)"/>
<path d="M135.049 62.7946L134.376 62.4673L162.415 5.99023L163.088 6.31753L135.049 62.7946Z" fill="url(#paint50_linear_310_6777)"/>
<path d="M162.906 0.608154C157.069 0.608154 157.051 9.68159 162.906 9.68159C168.761 9.68159 168.761 0.608154 162.906 0.608154Z" fill="white"/>
<path d="M148.396 381.947L38.7146 341.853L38.9873 341.144L148.669 381.238L148.396 381.947Z" fill="url(#paint51_linear_310_6777)"/>
<path d="M137.426 338.219L108.766 366.879L109.306 367.419L137.966 338.759L137.426 338.219Z" fill="url(#paint52_linear_310_6777)"/>
<path d="M269.082 315.355L230.829 356.234L231.386 356.755L269.64 315.876L269.082 315.355Z" fill="url(#paint53_linear_310_6777)"/>
<path d="M226.038 72.7047L205.091 62.9039V62.6858L203.109 39.8658L222.074 26.6284L243.021 36.4292V36.6474L245.003 59.4673L226.038 72.7047ZM205.8 62.3948L225.965 71.8319L244.221 59.0855L242.312 36.9201L222.147 27.483L203.891 40.2295L205.8 62.3948Z" fill="url(#paint54_linear_310_6777)"/>
<path d="M420.253 192.296L410.325 182.368L410.379 182.15L413.962 168.785L427.544 165.148L437.472 175.076L437.418 175.294L433.836 188.659L420.253 192.296ZM411.161 182.131L420.489 191.441L433.218 188.023L436.636 175.294L427.308 165.966L414.58 169.385L411.161 182.113V182.131Z" fill="url(#paint55_linear_310_6777)"/>
<path d="M383.268 365.473L361.54 357.527L361.503 357.309L357.557 334.743L375.304 319.906L397.033 327.852L397.07 328.07L401.015 350.635L383.268 365.473ZM362.212 356.963L383.123 364.6L400.197 350.326L396.36 328.397L375.45 320.76L358.376 335.034L362.212 356.963Z" fill="url(#paint56_linear_310_6777)"/>
<path d="M170.343 344.271L158.651 336.471L159.56 322.452L172.161 316.233L183.853 324.034L182.944 338.053L170.343 344.271ZM159.433 336.089L170.397 343.417L182.217 337.58L183.071 324.434L172.107 317.106L160.288 322.943L159.433 336.089Z" fill="url(#paint57_linear_310_6777)"/>
<g style="mix-blend-mode:screen">
<path d="M350.884 98.4703C350.884 102.198 347.866 105.216 344.138 105.216C340.411 105.216 337.392 102.198 337.392 98.4703C337.392 94.7428 340.411 91.7244 344.138 91.7244C347.866 91.7244 350.884 94.7428 350.884 98.4703Z" fill="url(#paint58_radial_310_6777)"/>
</g>
<g style="mix-blend-mode:screen">
<path d="M396.251 153.493C396.251 157.22 393.233 160.239 389.505 160.239C385.778 160.239 382.76 157.22 382.76 153.493C382.76 149.765 385.778 146.747 389.505 146.747C393.233 146.747 396.251 149.765 396.251 153.493Z" fill="url(#paint59_radial_310_6777)"/>
</g>
<g style="mix-blend-mode:screen">
<path d="M225.147 262.21C225.147 265.938 222.129 268.956 218.401 268.956C214.674 268.956 211.656 265.938 211.656 262.21C211.656 258.483 214.674 255.464 218.401 255.464C222.129 255.464 225.147 258.483 225.147 262.21Z" fill="url(#paint60_radial_310_6777)"/>
</g>
<g style="mix-blend-mode:screen">
<path d="M43.0239 140.128C43.0239 143.856 40.0055 146.874 36.2779 146.874C32.5504 146.874 29.532 143.856 29.532 140.128C29.532 136.4 32.5504 133.382 36.2779 133.382C40.0055 133.382 43.0239 136.4 43.0239 140.128Z" fill="url(#paint61_radial_310_6777)"/>
</g>
<g style="mix-blend-mode:screen">
<path d="M127.503 213.206C127.503 216.934 124.485 219.952 120.757 219.952C117.03 219.952 114.011 216.934 114.011 213.206C114.011 209.479 117.03 206.46 120.757 206.46C124.485 206.46 127.503 209.479 127.503 213.206Z" fill="url(#paint62_radial_310_6777)"/>
</g>
<g style="mix-blend-mode:screen">
<path d="M350.884 98.4703C350.884 102.198 347.866 105.216 344.138 105.216C340.411 105.216 337.392 102.198 337.392 98.4703C337.392 94.7428 340.411 91.7244 344.138 91.7244C347.866 91.7244 350.884 94.7428 350.884 98.4703Z" fill="url(#paint63_radial_310_6777)"/>
</g>
<g style="mix-blend-mode:screen">
<path d="M67.4988 300.904C67.4988 304.632 64.4804 307.65 60.7528 307.65C57.0253 307.65 54.0068 304.632 54.0068 300.904C54.0068 297.176 57.0253 294.158 60.7528 294.158C64.4804 294.158 67.4988 297.176 67.4988 300.904Z" fill="url(#paint64_radial_310_6777)"/>
</g>
<g style="mix-blend-mode:screen">
<path d="M350.884 98.4703C350.884 102.198 347.866 105.216 344.138 105.216C340.411 105.216 337.392 102.198 337.392 98.4703C337.392 94.7428 340.411 91.7244 344.138 91.7244C347.866 91.7244 350.884 94.7428 350.884 98.4703Z" fill="url(#paint65_radial_310_6777)"/>
</g>
<g style="mix-blend-mode:screen">
<path d="M32.7327 75.7412C32.7327 84.6146 25.5321 91.8152 16.6587 91.8152C7.78527 91.8152 0.584717 84.6146 0.584717 75.7412C0.584717 66.8678 7.78527 59.6672 16.6587 59.6672C25.5321 59.6672 32.7327 66.8678 32.7327 75.7412Z" fill="url(#paint66_radial_310_6777)"/>
</g>
<g style="mix-blend-mode:screen">
<path d="M395.36 345.035C395.36 353.908 388.16 361.109 379.286 361.109C370.413 361.109 363.212 353.908 363.212 345.035C363.212 336.161 370.413 328.961 379.286 328.961C388.16 328.961 395.36 336.161 395.36 345.035Z" fill="url(#paint67_radial_310_6777)"/>
</g>
<g style="mix-blend-mode:screen">
<path d="M528.916 201.224C528.916 210.097 521.715 217.298 512.842 217.298C503.969 217.298 496.768 210.097 496.768 201.224C496.768 192.35 503.969 185.15 512.842 185.15C521.715 185.15 528.916 192.35 528.916 201.224Z" fill="url(#paint68_radial_310_6777)"/>
</g>
<g style="mix-blend-mode:screen">
<path d="M350.884 98.4703C350.884 102.198 347.866 105.216 344.138 105.216C340.411 105.216 337.392 102.198 337.392 98.4703C337.392 94.7428 340.411 91.7244 344.138 91.7244C347.866 91.7244 350.884 94.7428 350.884 98.4703Z" fill="url(#paint69_radial_310_6777)"/>
</g>
<g style="mix-blend-mode:screen">
<path d="M319.1 112.635C319.1 116.362 316.082 119.381 312.354 119.381C308.627 119.381 305.608 116.362 305.608 112.635C305.608 108.907 308.627 105.889 312.354 105.889C316.082 105.889 319.1 108.907 319.1 112.635Z" fill="url(#paint70_radial_310_6777)"/>
</g>
<defs>
<linearGradient id="paint0_linear_310_6777" x1="32.5503" y1="187.75" x2="120.739" y2="187.75" gradientUnits="userSpaceOnUse">
<stop stop-color="#62AADB"/>
<stop offset="1" stop-color="#80E7FF"/>
</linearGradient>
<linearGradient id="paint1_linear_310_6777" x1="32.4958" y1="238.681" x2="120.739" y2="238.681" gradientUnits="userSpaceOnUse">
<stop stop-color="#0097D9"/>
<stop offset="1" stop-color="#80E7FF"/>
</linearGradient>
<linearGradient id="paint2_linear_310_6777" x1="3.13013" y1="213.206" x2="61.9165" y2="213.206" gradientUnits="userSpaceOnUse">
<stop stop-color="#6774FF"/>
<stop offset="1" stop-color="#49A2D0"/>
</linearGradient>
<linearGradient id="paint3_linear_310_6777" x1="50.6248" y1="56.9581" x2="119.339" y2="56.9581" gradientUnits="userSpaceOnUse">
<stop stop-color="#62AADB"/>
<stop offset="1" stop-color="#80E7FF"/>
</linearGradient>
<linearGradient id="paint4_linear_310_6777" x1="106.684" y1="67.9226" x2="162.761" y2="67.9226" gradientUnits="userSpaceOnUse">
<stop stop-color="#0097D9"/>
<stop offset="1" stop-color="#80E7FF"/>
</linearGradient>
<linearGradient id="paint5_linear_310_6777" x1="50.6248" y1="105.507" x2="150.123" y2="105.507" gradientUnits="userSpaceOnUse">
<stop stop-color="#6774FF"/>
<stop offset="1" stop-color="#49A2D0"/>
</linearGradient>
<linearGradient id="paint6_linear_310_6777" x1="207.055" y1="242.899" x2="274.042" y2="242.899" gradientUnits="userSpaceOnUse">
<stop stop-color="#62AADB"/>
<stop offset="1" stop-color="#80E7FF"/>
</linearGradient>
<linearGradient id="paint7_linear_310_6777" x1="174.071" y1="291.085" x2="274.042" y2="291.085" gradientUnits="userSpaceOnUse">
<stop stop-color="#0097D9"/>
<stop offset="1" stop-color="#80E7FF"/>
</linearGradient>
<linearGradient id="paint8_linear_310_6777" x1="162.76" y1="252.7" x2="218.383" y2="252.7" gradientUnits="userSpaceOnUse">
<stop stop-color="#6774FF"/>
<stop offset="1" stop-color="#49A2D0"/>
</linearGradient>
<linearGradient id="paint9_linear_310_6777" x1="145.65" y1="175.767" x2="189.763" y2="175.767" gradientUnits="userSpaceOnUse">
<stop stop-color="#62AADB"/>
<stop offset="1" stop-color="#80E7FF"/>
</linearGradient>
<linearGradient id="paint10_linear_310_6777" x1="145.632" y1="201.224" x2="189.763" y2="201.224" gradientUnits="userSpaceOnUse">
<stop stop-color="#0097D9"/>
<stop offset="1" stop-color="#80E7FF"/>
</linearGradient>
<linearGradient id="paint11_linear_310_6777" x1="130.94" y1="188.496" x2="160.342" y2="188.496" gradientUnits="userSpaceOnUse">
<stop stop-color="#6774FF"/>
<stop offset="1" stop-color="#49A2D0"/>
</linearGradient>
<linearGradient id="paint12_linear_310_6777" x1="154.706" y1="110.362" x2="189.054" y2="110.362" gradientUnits="userSpaceOnUse">
<stop stop-color="#62AADB"/>
<stop offset="1" stop-color="#80E7FF"/>
</linearGradient>
<linearGradient id="paint13_linear_310_6777" x1="182.726" y1="115.835" x2="210.764" y2="115.835" gradientUnits="userSpaceOnUse">
<stop stop-color="#0097D9"/>
<stop offset="1" stop-color="#80E7FF"/>
</linearGradient>
<linearGradient id="paint14_linear_310_6777" x1="154.706" y1="134.637" x2="204.437" y2="134.637" gradientUnits="userSpaceOnUse">
<stop stop-color="#6774FF"/>
<stop offset="1" stop-color="#49A2D0"/>
</linearGradient>
<linearGradient id="paint15_linear_310_6777" x1="101.556" y1="284.903" x2="146.686" y2="284.903" gradientUnits="userSpaceOnUse">
<stop stop-color="#62AADB"/>
<stop offset="1" stop-color="#80E7FF"/>
</linearGradient>
<linearGradient id="paint16_linear_310_6777" x1="130.94" y1="298.54" x2="160.324" y2="298.54" gradientUnits="userSpaceOnUse">
<stop stop-color="#0097D9"/>
<stop offset="1" stop-color="#80E7FF"/>
</linearGradient>
<linearGradient id="paint17_linear_310_6777" x1="101.556" y1="310.359" x2="144.577" y2="310.359" gradientUnits="userSpaceOnUse">
<stop stop-color="#6774FF"/>
<stop offset="1" stop-color="#49A2D0"/>
</linearGradient>
<linearGradient id="paint18_linear_310_6777" x1="259.55" y1="85.4328" x2="304.663" y2="85.4328" gradientUnits="userSpaceOnUse">
<stop stop-color="#62AADB"/>
<stop offset="1" stop-color="#80E7FF"/>
</linearGradient>
<linearGradient id="paint19_linear_310_6777" x1="288.916" y1="99.0884" x2="318.3" y2="99.0884" gradientUnits="userSpaceOnUse">
<stop stop-color="#0097D9"/>
<stop offset="1" stop-color="#80E7FF"/>
</linearGradient>
<linearGradient id="paint20_linear_310_6777" x1="259.55" y1="110.889" x2="302.553" y2="110.889" gradientUnits="userSpaceOnUse">
<stop stop-color="#6774FF"/>
<stop offset="1" stop-color="#49A2D0"/>
</linearGradient>
<linearGradient id="paint21_linear_310_6777" x1="101.556" y1="284.903" x2="146.686" y2="284.903" gradientUnits="userSpaceOnUse">
<stop stop-color="#62AADB"/>
<stop offset="1" stop-color="#80E7FF"/>
</linearGradient>
<linearGradient id="paint22_linear_310_6777" x1="130.94" y1="298.54" x2="160.324" y2="298.54" gradientUnits="userSpaceOnUse">
<stop stop-color="#0097D9"/>
<stop offset="1" stop-color="#80E7FF"/>
</linearGradient>
<linearGradient id="paint23_linear_310_6777" x1="101.556" y1="310.359" x2="144.577" y2="310.359" gradientUnits="userSpaceOnUse">
<stop stop-color="#6774FF"/>
<stop offset="1" stop-color="#49A2D0"/>
</linearGradient>
<linearGradient id="paint24_linear_310_6777" x1="282.152" y1="315.651" x2="332.756" y2="315.651" gradientUnits="userSpaceOnUse">
<stop stop-color="#62AADB"/>
<stop offset="1" stop-color="#80E7FF"/>
</linearGradient>
<linearGradient id="paint25_linear_310_6777" x1="309.135" y1="336.089" x2="336.138" y2="336.089" gradientUnits="userSpaceOnUse">
<stop stop-color="#0097D9"/>
<stop offset="1" stop-color="#80E7FF"/>
</linearGradient>
<linearGradient id="paint26_linear_310_6777" x1="282.152" y1="339.016" x2="312.518" y2="339.016" gradientUnits="userSpaceOnUse">
<stop stop-color="#6774FF"/>
<stop offset="1" stop-color="#49A2D0"/>
</linearGradient>
<linearGradient id="paint27_linear_310_6777" x1="433.8" y1="252.555" x2="500.787" y2="252.555" gradientUnits="userSpaceOnUse">
<stop stop-color="#62AADB"/>
<stop offset="1" stop-color="#80E7FF"/>
</linearGradient>
<linearGradient id="paint28_linear_310_6777" x1="400.797" y1="300.74" x2="500.787" y2="300.74" gradientUnits="userSpaceOnUse">
<stop stop-color="#0097D9"/>
<stop offset="1" stop-color="#80E7FF"/>
</linearGradient>
<linearGradient id="paint29_linear_310_6777" x1="389.487" y1="262.355" x2="445.128" y2="262.355" gradientUnits="userSpaceOnUse">
<stop stop-color="#6774FF"/>
<stop offset="1" stop-color="#49A2D0"/>
</linearGradient>
<linearGradient id="paint30_linear_310_6777" x1="297.934" y1="204.915" x2="360.648" y2="204.915" gradientUnits="userSpaceOnUse">
<stop stop-color="#62AADB"/>
<stop offset="1" stop-color="#80E7FF"/>
</linearGradient>
<linearGradient id="paint31_linear_310_6777" x1="339.065" y1="223.607" x2="380.232" y2="223.607" gradientUnits="userSpaceOnUse">
<stop stop-color="#0097D9"/>
<stop offset="1" stop-color="#80E7FF"/>
</linearGradient>
<linearGradient id="paint32_linear_310_6777" x1="297.935" y1="240.554" x2="358.648" y2="240.554" gradientUnits="userSpaceOnUse">
<stop stop-color="#6774FF"/>
<stop offset="1" stop-color="#49A2D0"/>
</linearGradient>
<linearGradient id="paint33_linear_310_6777" x1="215.001" y1="170.094" x2="254.568" y2="170.094" gradientUnits="userSpaceOnUse">
<stop stop-color="#62AADB"/>
<stop offset="1" stop-color="#80E7FF"/>
</linearGradient>
<linearGradient id="paint34_linear_310_6777" x1="224.947" y1="144.456" x2="294.152" y2="144.456" gradientUnits="userSpaceOnUse">
<stop stop-color="#0097D9"/>
<stop offset="1" stop-color="#80E7FF"/>
</linearGradient>
<linearGradient id="paint35_linear_310_6777" x1="244.604" y1="178.731" x2="294.153" y2="178.731" gradientUnits="userSpaceOnUse">
<stop stop-color="#6774FF"/>
<stop offset="1" stop-color="#49A2D0"/>
</linearGradient>
<linearGradient id="paint36_linear_310_6777" x1="344.12" y1="92.5787" x2="414.453" y2="92.5787" gradientUnits="userSpaceOnUse">
<stop stop-color="#62AADB"/>
<stop offset="1" stop-color="#80E7FF"/>
</linearGradient>
<linearGradient id="paint37_linear_310_6777" x1="382.687" y1="120.09" x2="421.253" y2="120.09" gradientUnits="userSpaceOnUse">
<stop stop-color="#0097D9"/>
<stop offset="1" stop-color="#80E7FF"/>
</linearGradient>
<linearGradient id="paint38_linear_310_6777" x1="344.12" y1="125.981" x2="389.487" y2="125.981" gradientUnits="userSpaceOnUse">
<stop stop-color="#6774FF"/>
<stop offset="1" stop-color="#49A2D0"/>
</linearGradient>
<linearGradient id="paint39_linear_310_6777" x1="453.393" y1="172.046" x2="509.616" y2="172.047" gradientUnits="userSpaceOnUse">
<stop stop-color="#B7EEFF" stop-opacity="0.2"/>
<stop offset="1" stop-color="white"/>
</linearGradient>
<linearGradient id="paint40_linear_310_6777" x1="401.961" y1="121.617" x2="509.26" y2="121.617" gradientUnits="userSpaceOnUse">
<stop stop-color="#B7EEFF" stop-opacity="0.2"/>
<stop offset="1" stop-color="white"/>
</linearGradient>
<linearGradient id="paint41_linear_310_6777" x1="359.419" y1="233.268" x2="400.986" y2="233.269" gradientUnits="userSpaceOnUse">
<stop stop-color="#B7EEFF" stop-opacity="0.2"/>
<stop offset="1" stop-color="white"/>
</linearGradient>
<linearGradient id="paint42_linear_310_6777" x1="302.186" y1="164.73" x2="329.641" y2="164.73" gradientUnits="userSpaceOnUse">
<stop stop-color="#B7EEFF" stop-opacity="0.2"/>
<stop offset="1" stop-color="white"/>
</linearGradient>
<linearGradient id="paint43_linear_310_6777" x1="308.68" y1="275.727" x2="322.936" y2="275.727" gradientUnits="userSpaceOnUse">
<stop stop-color="#B7EEFF" stop-opacity="0.2"/>
<stop offset="1" stop-color="white"/>
</linearGradient>
<linearGradient id="paint44_linear_310_6777" x1="251.149" y1="318.578" x2="297.571" y2="318.578" gradientUnits="userSpaceOnUse">
<stop stop-color="#B7EEFF" stop-opacity="0.2"/>
<stop offset="1" stop-color="white"/>
</linearGradient>
<linearGradient id="paint45_linear_310_6777" x1="289.286" y1="168.227" x2="316.016" y2="168.227" gradientUnits="userSpaceOnUse">
<stop stop-color="#B7EEFF" stop-opacity="0.2"/>
<stop offset="1" stop-color="white"/>
</linearGradient>
<linearGradient id="paint46_linear_310_6777" x1="196.527" y1="150.783" x2="219.383" y2="150.783" gradientUnits="userSpaceOnUse">
<stop stop-color="#B7EEFF" stop-opacity="0.2"/>
<stop offset="1" stop-color="white"/>
</linearGradient>
<linearGradient id="paint47_linear_310_6777" x1="129.485" y1="155.684" x2="144.94" y2="155.684" gradientUnits="userSpaceOnUse">
<stop stop-color="#B7EEFF" stop-opacity="0.2"/>
<stop offset="1" stop-color="white"/>
</linearGradient>
<linearGradient id="paint48_linear_310_6777" x1="78.4084" y1="261.792" x2="123.339" y2="261.792" gradientUnits="userSpaceOnUse">
<stop stop-color="#B7EEFF" stop-opacity="0.2"/>
<stop offset="1" stop-color="white"/>
</linearGradient>
<linearGradient id="paint49_linear_310_6777" x1="130.613" y1="236.572" x2="185.49" y2="236.572" gradientUnits="userSpaceOnUse">
<stop stop-color="#B7EEFF" stop-opacity="0.2"/>
<stop offset="1" stop-color="white"/>
</linearGradient>
<linearGradient id="paint50_linear_310_6777" x1="134.376" y1="34.3924" x2="163.088" y2="34.3924" gradientUnits="userSpaceOnUse">
<stop stop-color="#B7EEFF" stop-opacity="0.2"/>
<stop offset="1" stop-color="white"/>
</linearGradient>
<linearGradient id="paint51_linear_310_6777" x1="38.7146" y1="361.545" x2="148.669" y2="361.545" gradientUnits="userSpaceOnUse">
<stop stop-color="#B7EEFF" stop-opacity="0.2"/>
<stop offset="1" stop-color="white"/>
</linearGradient>
<linearGradient id="paint52_linear_310_6777" x1="108.791" y1="352.807" x2="137.956" y2="352.807" gradientUnits="userSpaceOnUse">
<stop stop-color="#B7EEFF" stop-opacity="0.2"/>
<stop offset="1" stop-color="white"/>
</linearGradient>
<linearGradient id="paint53_linear_310_6777" x1="230.816" y1="336.077" x2="269.637" y2="336.077" gradientUnits="userSpaceOnUse">
<stop stop-color="#B7EEFF" stop-opacity="0.2"/>
<stop offset="1" stop-color="white"/>
</linearGradient>
<linearGradient id="paint54_linear_310_6777" x1="203.109" y1="49.6666" x2="245.003" y2="49.6666" gradientUnits="userSpaceOnUse">
<stop stop-color="#B7EEFF" stop-opacity="0.2"/>
<stop offset="1" stop-color="white"/>
</linearGradient>
<linearGradient id="paint55_linear_310_6777" x1="410.325" y1="178.731" x2="437.472" y2="178.731" gradientUnits="userSpaceOnUse">
<stop stop-color="#B7EEFF" stop-opacity="0.2"/>
<stop offset="1" stop-color="white"/>
</linearGradient>
<linearGradient id="paint56_linear_310_6777" x1="357.557" y1="342.689" x2="401.015" y2="342.689" gradientUnits="userSpaceOnUse">
<stop stop-color="#B7EEFF" stop-opacity="0.2"/>
<stop offset="1" stop-color="white"/>
</linearGradient>
<linearGradient id="paint57_linear_310_6777" x1="158.651" y1="330.234" x2="183.853" y2="330.234" gradientUnits="userSpaceOnUse">
<stop stop-color="#B7EEFF" stop-opacity="0.2"/>
<stop offset="1" stop-color="white"/>
</linearGradient>
<radialGradient id="paint58_radial_310_6777" cx="0" cy="0" r="1" gradientUnits="userSpaceOnUse" gradientTransform="translate(344.12 98.4703) scale(6.74599 6.74598)">
<stop offset="0.18" stop-color="white"/>
<stop offset="0.19" stop-color="#BEFFFF"/>
<stop offset="0.2" stop-color="#64FFFF"/>
<stop offset="0.21" stop-color="#51FFFF"/>
<stop offset="0.23" stop-color="#20FFFF"/>
<stop offset="0.25" stop-color="#00FFFF"/>
<stop offset="0.3" stop-color="#04D6E4" stop-opacity="0.83"/>
<stop offset="0.37" stop-color="#09A9C6" stop-opacity="0.64"/>
<stop offset="0.45" stop-color="#0E81AC" stop-opacity="0.47"/>
<stop offset="0.52" stop-color="#125F95" stop-opacity="0.32"/>
<stop offset="0.6" stop-color="#154483" stop-opacity="0.2"/>
<stop offset="0.68" stop-color="#172E75" stop-opacity="0.11"/>
<stop offset="0.77" stop-color="#191F6B" stop-opacity="0.05"/>
<stop offset="0.87" stop-color="#1A1665" stop-opacity="0.01"/>
<stop offset="1" stop-color="#1B1464" stop-opacity="0"/>
</radialGradient>
<radialGradient id="paint59_radial_310_6777" cx="0" cy="0" r="1" gradientUnits="userSpaceOnUse" gradientTransform="translate(389.487 153.493) scale(6.74596 6.74598)">
<stop offset="0.18" stop-color="white"/>
<stop offset="0.19" stop-color="#BEFFFF"/>
<stop offset="0.2" stop-color="#64FFFF"/>
<stop offset="0.21" stop-color="#51FFFF"/>
<stop offset="0.23" stop-color="#20FFFF"/>
<stop offset="0.25" stop-color="#00FFFF"/>
<stop offset="0.3" stop-color="#04D6E4" stop-opacity="0.83"/>
<stop offset="0.37" stop-color="#09A9C6" stop-opacity="0.64"/>
<stop offset="0.45" stop-color="#0E81AC" stop-opacity="0.47"/>
<stop offset="0.52" stop-color="#125F95" stop-opacity="0.32"/>
<stop offset="0.6" stop-color="#154483" stop-opacity="0.2"/>
<stop offset="0.68" stop-color="#172E75" stop-opacity="0.11"/>
<stop offset="0.77" stop-color="#191F6B" stop-opacity="0.05"/>
<stop offset="0.87" stop-color="#1A1665" stop-opacity="0.01"/>
<stop offset="1" stop-color="#1B1464" stop-opacity="0"/>
</radialGradient>
<radialGradient id="paint60_radial_310_6777" cx="0" cy="0" r="1" gradientUnits="userSpaceOnUse" gradientTransform="translate(218.383 262.21) scale(6.74596 6.74598)">
<stop offset="0.18" stop-color="white"/>
<stop offset="0.19" stop-color="#BEFFFF"/>
<stop offset="0.2" stop-color="#64FFFF"/>
<stop offset="0.21" stop-color="#51FFFF"/>
<stop offset="0.23" stop-color="#20FFFF"/>
<stop offset="0.25" stop-color="#00FFFF"/>
<stop offset="0.3" stop-color="#04D6E4" stop-opacity="0.83"/>
<stop offset="0.37" stop-color="#09A9C6" stop-opacity="0.64"/>
<stop offset="0.45" stop-color="#0E81AC" stop-opacity="0.47"/>
<stop offset="0.52" stop-color="#125F95" stop-opacity="0.32"/>
<stop offset="0.6" stop-color="#154483" stop-opacity="0.2"/>
<stop offset="0.68" stop-color="#172E75" stop-opacity="0.11"/>
<stop offset="0.77" stop-color="#191F6B" stop-opacity="0.05"/>
<stop offset="0.87" stop-color="#1A1665" stop-opacity="0.01"/>
<stop offset="1" stop-color="#1B1464" stop-opacity="0"/>
</radialGradient>
<radialGradient id="paint61_radial_310_6777" cx="0" cy="0" r="1" gradientUnits="userSpaceOnUse" gradientTransform="translate(36.278 140.128) scale(6.74598)">
<stop offset="0.18" stop-color="white"/>
<stop offset="0.19" stop-color="#BEFFFF"/>
<stop offset="0.2" stop-color="#64FFFF"/>
<stop offset="0.21" stop-color="#51FFFF"/>
<stop offset="0.23" stop-color="#20FFFF"/>
<stop offset="0.25" stop-color="#00FFFF"/>
<stop offset="0.3" stop-color="#04D6E4" stop-opacity="0.83"/>
<stop offset="0.37" stop-color="#09A9C6" stop-opacity="0.64"/>
<stop offset="0.45" stop-color="#0E81AC" stop-opacity="0.47"/>
<stop offset="0.52" stop-color="#125F95" stop-opacity="0.32"/>
<stop offset="0.6" stop-color="#154483" stop-opacity="0.2"/>
<stop offset="0.68" stop-color="#172E75" stop-opacity="0.11"/>
<stop offset="0.77" stop-color="#191F6B" stop-opacity="0.05"/>
<stop offset="0.87" stop-color="#1A1665" stop-opacity="0.01"/>
<stop offset="1" stop-color="#1B1464" stop-opacity="0"/>
</radialGradient>
<radialGradient id="paint62_radial_310_6777" cx="0" cy="0" r="1" gradientUnits="userSpaceOnUse" gradientTransform="translate(120.739 213.206) scale(6.74599 6.74598)">
<stop offset="0.18" stop-color="white"/>
<stop offset="0.19" stop-color="#BEFFFF"/>
<stop offset="0.2" stop-color="#64FFFF"/>
<stop offset="0.21" stop-color="#51FFFF"/>
<stop offset="0.23" stop-color="#20FFFF"/>
<stop offset="0.25" stop-color="#00FFFF"/>
<stop offset="0.3" stop-color="#04D6E4" stop-opacity="0.83"/>
<stop offset="0.37" stop-color="#09A9C6" stop-opacity="0.64"/>
<stop offset="0.45" stop-color="#0E81AC" stop-opacity="0.47"/>
<stop offset="0.52" stop-color="#125F95" stop-opacity="0.32"/>
<stop offset="0.6" stop-color="#154483" stop-opacity="0.2"/>
<stop offset="0.68" stop-color="#172E75" stop-opacity="0.11"/>
<stop offset="0.77" stop-color="#191F6B" stop-opacity="0.05"/>
<stop offset="0.87" stop-color="#1A1665" stop-opacity="0.01"/>
<stop offset="1" stop-color="#1B1464" stop-opacity="0"/>
</radialGradient>
<radialGradient id="paint63_radial_310_6777" cx="0" cy="0" r="1" gradientUnits="userSpaceOnUse" gradientTransform="translate(344.12 98.4703) scale(6.74599 6.74598)">
<stop offset="0.18" stop-color="white"/>
<stop offset="0.19" stop-color="#BEFFFF"/>
<stop offset="0.2" stop-color="#64FFFF"/>
<stop offset="0.21" stop-color="#51FFFF"/>
<stop offset="0.23" stop-color="#20FFFF"/>
<stop offset="0.25" stop-color="#00FFFF"/>
<stop offset="0.3" stop-color="#04D6E4" stop-opacity="0.83"/>
<stop offset="0.37" stop-color="#09A9C6" stop-opacity="0.64"/>
<stop offset="0.45" stop-color="#0E81AC" stop-opacity="0.47"/>
<stop offset="0.52" stop-color="#125F95" stop-opacity="0.32"/>
<stop offset="0.6" stop-color="#154483" stop-opacity="0.2"/>
<stop offset="0.68" stop-color="#172E75" stop-opacity="0.11"/>
<stop offset="0.77" stop-color="#191F6B" stop-opacity="0.05"/>
<stop offset="0.87" stop-color="#1A1665" stop-opacity="0.01"/>
<stop offset="1" stop-color="#1B1464" stop-opacity="0"/>
</radialGradient>
<radialGradient id="paint64_radial_310_6777" cx="0" cy="0" r="1" gradientUnits="userSpaceOnUse" gradientTransform="translate(60.7528 300.904) scale(6.74599 6.74598)">
<stop offset="0.18" stop-color="white"/>
<stop offset="0.19" stop-color="#BEFFFF"/>
<stop offset="0.2" stop-color="#64FFFF"/>
<stop offset="0.21" stop-color="#51FFFF"/>
<stop offset="0.23" stop-color="#20FFFF"/>
<stop offset="0.25" stop-color="#00FFFF"/>
<stop offset="0.3" stop-color="#04D6E4" stop-opacity="0.83"/>
<stop offset="0.37" stop-color="#09A9C6" stop-opacity="0.64"/>
<stop offset="0.45" stop-color="#0E81AC" stop-opacity="0.47"/>
<stop offset="0.52" stop-color="#125F95" stop-opacity="0.32"/>
<stop offset="0.6" stop-color="#154483" stop-opacity="0.2"/>
<stop offset="0.68" stop-color="#172E75" stop-opacity="0.11"/>
<stop offset="0.77" stop-color="#191F6B" stop-opacity="0.05"/>
<stop offset="0.87" stop-color="#1A1665" stop-opacity="0.01"/>
<stop offset="1" stop-color="#1B1464" stop-opacity="0"/>
</radialGradient>
<radialGradient id="paint65_radial_310_6777" cx="0" cy="0" r="1" gradientUnits="userSpaceOnUse" gradientTransform="translate(344.12 98.4703) scale(6.74599 6.74598)">
<stop offset="0.18" stop-color="white"/>
<stop offset="0.19" stop-color="#BEFFFF"/>
<stop offset="0.2" stop-color="#64FFFF"/>
<stop offset="0.21" stop-color="#51FFFF"/>
<stop offset="0.23" stop-color="#20FFFF"/>
<stop offset="0.25" stop-color="#00FFFF"/>
<stop offset="0.3" stop-color="#04D6E4" stop-opacity="0.83"/>
<stop offset="0.37" stop-color="#09A9C6" stop-opacity="0.64"/>
<stop offset="0.45" stop-color="#0E81AC" stop-opacity="0.47"/>
<stop offset="0.52" stop-color="#125F95" stop-opacity="0.32"/>
<stop offset="0.6" stop-color="#154483" stop-opacity="0.2"/>
<stop offset="0.68" stop-color="#172E75" stop-opacity="0.11"/>
<stop offset="0.77" stop-color="#191F6B" stop-opacity="0.05"/>
<stop offset="0.87" stop-color="#1A1665" stop-opacity="0.01"/>
<stop offset="1" stop-color="#1B1464" stop-opacity="0"/>
</radialGradient>
<radialGradient id="paint66_radial_310_6777" cx="0" cy="0" r="1" gradientUnits="userSpaceOnUse" gradientTransform="translate(16.6587 75.7412) scale(0.909161)">
<stop offset="0.18" stop-color="white"/>
<stop offset="0.19" stop-color="#BEFFFF"/>
<stop offset="0.2" stop-color="#64FFFF"/>
<stop offset="0.21" stop-color="#51FFFF"/>
<stop offset="0.23" stop-color="#20FFFF"/>
<stop offset="0.25" stop-color="#00FFFF"/>
<stop offset="0.3" stop-color="#04D6E4" stop-opacity="0.83"/>
<stop offset="0.37" stop-color="#09A9C6" stop-opacity="0.64"/>
<stop offset="0.45" stop-color="#0E81AC" stop-opacity="0.47"/>
<stop offset="0.52" stop-color="#125F95" stop-opacity="0.32"/>
<stop offset="0.6" stop-color="#154483" stop-opacity="0.2"/>
<stop offset="0.68" stop-color="#172E75" stop-opacity="0.11"/>
<stop offset="0.77" stop-color="#191F6B" stop-opacity="0.05"/>
<stop offset="0.87" stop-color="#1A1665" stop-opacity="0.01"/>
<stop offset="1" stop-color="#1B1464" stop-opacity="0"/>
</radialGradient>
<radialGradient id="paint67_radial_310_6777" cx="0" cy="0" r="1" gradientUnits="userSpaceOnUse" gradientTransform="translate(379.286 345.053) scale(0.909161)">
<stop offset="0.18" stop-color="white"/>
<stop offset="0.19" stop-color="#BEFFFF"/>
<stop offset="0.2" stop-color="#64FFFF"/>
<stop offset="0.21" stop-color="#51FFFF"/>
<stop offset="0.23" stop-color="#20FFFF"/>
<stop offset="0.25" stop-color="#00FFFF"/>
<stop offset="0.3" stop-color="#04D6E4" stop-opacity="0.83"/>
<stop offset="0.37" stop-color="#09A9C6" stop-opacity="0.64"/>
<stop offset="0.45" stop-color="#0E81AC" stop-opacity="0.47"/>
<stop offset="0.52" stop-color="#125F95" stop-opacity="0.32"/>
<stop offset="0.6" stop-color="#154483" stop-opacity="0.2"/>
<stop offset="0.68" stop-color="#172E75" stop-opacity="0.11"/>
<stop offset="0.77" stop-color="#191F6B" stop-opacity="0.05"/>
<stop offset="0.87" stop-color="#1A1665" stop-opacity="0.01"/>
<stop offset="1" stop-color="#1B1464" stop-opacity="0"/>
</radialGradient>
<radialGradient id="paint68_radial_310_6777" cx="0" cy="0" r="1" gradientUnits="userSpaceOnUse" gradientTransform="translate(512.842 201.224) scale(0.909161)">
<stop offset="0.18" stop-color="white"/>
<stop offset="0.19" stop-color="#BEFFFF"/>
<stop offset="0.2" stop-color="#64FFFF"/>
<stop offset="0.21" stop-color="#51FFFF"/>
<stop offset="0.23" stop-color="#20FFFF"/>
<stop offset="0.25" stop-color="#00FFFF"/>
<stop offset="0.3" stop-color="#04D6E4" stop-opacity="0.83"/>
<stop offset="0.37" stop-color="#09A9C6" stop-opacity="0.64"/>
<stop offset="0.45" stop-color="#0E81AC" stop-opacity="0.47"/>
<stop offset="0.52" stop-color="#125F95" stop-opacity="0.32"/>
<stop offset="0.6" stop-color="#154483" stop-opacity="0.2"/>
<stop offset="0.68" stop-color="#172E75" stop-opacity="0.11"/>
<stop offset="0.77" stop-color="#191F6B" stop-opacity="0.05"/>
<stop offset="0.87" stop-color="#1A1665" stop-opacity="0.01"/>
<stop offset="1" stop-color="#1B1464" stop-opacity="0"/>
</radialGradient>
<radialGradient id="paint69_radial_310_6777" cx="0" cy="0" r="1" gradientUnits="userSpaceOnUse" gradientTransform="translate(344.12 98.4703) scale(6.74599 6.74598)">
<stop offset="0.18" stop-color="white"/>
<stop offset="0.19" stop-color="#BEFFFF"/>
<stop offset="0.2" stop-color="#64FFFF"/>
<stop offset="0.21" stop-color="#51FFFF"/>
<stop offset="0.23" stop-color="#20FFFF"/>
<stop offset="0.25" stop-color="#00FFFF"/>
<stop offset="0.3" stop-color="#04D6E4" stop-opacity="0.83"/>
<stop offset="0.37" stop-color="#09A9C6" stop-opacity="0.64"/>
<stop offset="0.45" stop-color="#0E81AC" stop-opacity="0.47"/>
<stop offset="0.52" stop-color="#125F95" stop-opacity="0.32"/>
<stop offset="0.6" stop-color="#154483" stop-opacity="0.2"/>
<stop offset="0.68" stop-color="#172E75" stop-opacity="0.11"/>
<stop offset="0.77" stop-color="#191F6B" stop-opacity="0.05"/>
<stop offset="0.87" stop-color="#1A1665" stop-opacity="0.01"/>
<stop offset="1" stop-color="#1B1464" stop-opacity="0"/>
</radialGradient>
<radialGradient id="paint70_radial_310_6777" cx="0" cy="0" r="1" gradientUnits="userSpaceOnUse" gradientTransform="translate(312.336 112.635) scale(6.74599 6.74598)">
<stop offset="0.18" stop-color="white"/>
<stop offset="0.19" stop-color="#BEFFFF"/>
<stop offset="0.2" stop-color="#64FFFF"/>
<stop offset="0.21" stop-color="#51FFFF"/>
<stop offset="0.23" stop-color="#20FFFF"/>
<stop offset="0.25" stop-color="#00FFFF"/>
<stop offset="0.3" stop-color="#04D6E4" stop-opacity="0.83"/>
<stop offset="0.37" stop-color="#09A9C6" stop-opacity="0.64"/>
<stop offset="0.45" stop-color="#0E81AC" stop-opacity="0.47"/>
<stop offset="0.52" stop-color="#125F95" stop-opacity="0.32"/>
<stop offset="0.6" stop-color="#154483" stop-opacity="0.2"/>
<stop offset="0.68" stop-color="#172E75" stop-opacity="0.11"/>
<stop offset="0.77" stop-color="#191F6B" stop-opacity="0.05"/>
<stop offset="0.87" stop-color="#1A1665" stop-opacity="0.01"/>
<stop offset="1" stop-color="#1B1464" stop-opacity="0"/>
</radialGradient>
</defs>
</svg>
