<svg width="470" height="271" viewBox="0 0 470 271" fill="none" xmlns="http://www.w3.org/2000/svg">
<path d="M0.556641 261.598H392.513L420.683 17.7554H28.7422L0.556641 261.598Z" fill="#3468AA"/>
<path opacity="0.4" d="M0.556641 261.598H392.513L420.683 17.7554H28.7422L0.556641 261.598Z" fill="white"/>
<path d="M469.499 270.737H77.5427L28.7422 17.7554H420.683L469.499 270.737Z" fill="#3468AA"/>
<path opacity="0.6" d="M469.499 270.737H77.5427L28.7422 17.7554H420.683L469.499 270.737Z" fill="white"/>
<path d="M454.486 257.164H87.3059L47.8845 52.7592H415.065L454.486 257.164Z" fill="white"/>
<g opacity="0.5">
<path d="M115.891 102.328H77.4945L70.084 63.915H108.481L115.891 102.328Z" fill="#3468AA"/>
<path d="M404.581 102.328H366.168L358.774 63.915H397.171L404.581 102.328Z" fill="#3468AA"/>
<path d="M356.453 102.328H318.056L310.646 63.915H349.059L356.453 102.328Z" fill="#3468AA"/>
<path d="M308.341 102.328H269.944L262.533 63.915H300.946L308.341 102.328Z" fill="#3468AA"/>
<path d="M260.228 102.328H221.831L214.421 63.915H252.818L260.228 102.328Z" fill="#3468AA"/>
<path d="M212.116 102.328H173.719L166.309 63.915H204.706L212.116 102.328Z" fill="#3468AA"/>
<path d="M164.004 102.328H125.607L118.197 63.915H156.594L164.004 102.328Z" fill="#3468AA"/>
<path opacity="0.5" d="M125.127 150.216H86.7296L79.3191 111.819H117.716L125.127 150.216Z" fill="#3468AA"/>
<path d="M413.817 150.216H375.42L368.009 111.819H406.406L413.817 150.216Z" fill="#3468AA"/>
<path opacity="0.5" d="M365.704 150.216H327.307L319.896 111.819H358.294L365.704 150.216Z" fill="#3468AA"/>
<path d="M317.592 150.216H279.179L271.784 111.819H310.181L317.592 150.216Z" fill="#3468AA"/>
<path d="M269.464 150.216H231.067L223.656 111.819H262.069L269.464 150.216Z" fill="#3468AA"/>
<path d="M221.351 150.216H182.954L175.544 111.819H213.941L221.351 150.216Z" fill="#3468AA"/>
<path d="M173.239 150.216H134.842L127.431 111.819H165.828L173.239 150.216Z" fill="#3468AA"/>
<path d="M134.362 198.104H95.9647L88.5542 159.707H126.951L134.362 198.104Z" fill="#3468AA"/>
<path d="M423.052 198.104H384.655L377.244 159.707H415.641L423.052 198.104Z" fill="#3468AA"/>
<path d="M374.939 198.104H336.542L329.132 159.707H367.529L374.939 198.104Z" fill="#3468AA"/>
<path d="M326.827 198.104H288.43L281.019 159.707H319.416L326.827 198.104Z" fill="#3468AA"/>
<path d="M278.715 198.104H240.302L232.907 159.707H271.304L278.715 198.104Z" fill="#3468AA"/>
<path d="M230.586 198.104H192.189L184.779 159.707H223.192L230.586 198.104Z" fill="#3468AA"/>
<path d="M182.474 198.104H144.077L136.667 159.707H175.063L182.474 198.104Z" fill="#3468AA"/>
<path d="M143.597 246.009H105.2L97.7896 207.596H136.203L143.597 246.009Z" fill="#3468AA"/>
<path d="M432.287 246.009H393.89L386.479 207.596H424.876L432.287 246.009Z" fill="#3468AA"/>
<path d="M384.174 246.009H345.777L338.367 207.596H376.764L384.174 246.009Z" fill="#3468AA"/>
<path d="M336.062 246.009H297.665L290.255 207.596H328.652L336.062 246.009Z" fill="#3468AA"/>
<path d="M287.95 246.009H249.553L242.142 207.596H280.539L287.95 246.009Z" fill="#3468AA"/>
<path d="M239.838 246.009H201.425L194.03 207.596H232.427L239.838 246.009Z" fill="#3468AA"/>
<path opacity="0.5" d="M191.725 246.009H153.312L145.918 207.596H184.315L191.725 246.009Z" fill="#3468AA"/>
</g>
<path d="M77.0784 35.1212L76.5822 32.5763C81.1117 32.5763 83.6406 25.79 82.0881 17.7553C80.5355 9.72055 75.3978 2.91826 70.8843 2.91826C66.3707 2.91826 63.8259 9.72055 65.3624 17.7553H62.8336C60.9449 8.00797 64.274 0.389404 70.3881 0.389404C76.5022 0.389404 82.7763 8.00797 84.6489 17.7553C86.5216 27.5026 83.1924 35.1212 77.0784 35.1212Z" fill="#263238"/>
<path d="M114.979 35.1212L114.483 32.5763C119.012 32.5763 121.541 25.79 119.989 17.7553C118.436 9.72055 113.298 2.91826 108.785 2.91826C104.271 2.91826 101.727 9.72055 103.263 17.7553H100.734C98.8455 8.00797 102.175 0.389404 108.289 0.389404C114.403 0.389404 120.677 8.00797 122.55 17.7553C124.422 27.5026 121.093 35.1212 114.979 35.1212Z" fill="#263238"/>
<path d="M152.96 35.1212L152.464 32.5763C156.993 32.5763 159.522 25.79 157.97 17.7553C156.417 9.72055 151.279 2.91826 146.766 2.91826C142.252 2.91826 139.691 9.72055 141.244 17.7553H138.555C136.666 8.00797 139.995 0.389404 146.11 0.389404C152.224 0.389404 158.498 8.00797 160.37 17.7553C162.243 27.5026 158.994 35.1212 152.96 35.1212Z" fill="#263238"/>
<path d="M190.765 35.1212L190.285 32.5763C194.814 32.5763 197.343 25.79 195.791 17.7553C194.238 9.72055 189.1 2.91826 184.587 2.91826C180.073 2.91826 177.528 9.72055 179.081 17.7553H176.536C174.663 8.00797 177.993 0.389404 184.107 0.389404C190.221 0.389404 196.479 8.00797 198.367 17.7553C200.256 27.5026 196.895 35.1212 190.765 35.1212Z" fill="#263238"/>
<path d="M228.666 35.1212L228.186 32.5763C232.715 32.5763 235.244 25.79 233.691 17.7553C232.139 9.72055 227.001 2.91826 222.488 2.91826C217.974 2.91826 215.429 9.72055 216.982 17.7553H214.437C212.564 8.00797 215.893 0.389404 222.007 0.389404C228.122 0.389404 234.38 8.00797 236.268 17.7553C238.157 27.5026 234.796 35.1212 228.666 35.1212Z" fill="#263238"/>
<path d="M266.599 35.1212L266.118 32.5763C270.648 32.5763 273.177 25.79 271.624 17.7553C270.072 9.72055 264.934 2.91826 260.42 2.91826C255.907 2.91826 253.362 9.72055 254.915 17.7553H252.37C250.497 8.00797 253.81 0.389404 259.94 0.389404C266.07 0.389404 272.312 8.00797 274.201 17.7553C276.09 27.5026 272.697 35.1212 266.599 35.1212Z" fill="#263238"/>
<path d="M304.467 35.1212L303.987 32.5763C308.517 32.5763 311.046 25.79 309.493 17.7553C307.941 9.72055 302.803 2.91826 298.289 2.91826C293.776 2.91826 291.231 9.72055 292.783 17.7553H290.239C288.366 8.00797 291.679 0.389404 297.809 0.389404C303.939 0.389404 310.181 8.00797 312.07 17.7553C313.959 27.5026 310.597 35.1212 304.467 35.1212Z" fill="#263238"/>
<path d="M342.368 35.1212L341.888 32.5763C346.418 32.5763 348.947 25.79 347.394 17.7553C345.841 9.72055 340.704 2.91826 336.19 2.91826C331.677 2.91826 329.132 9.72055 330.684 17.7553H328.139C326.267 8.00797 329.58 0.389404 335.71 0.389404C341.84 0.389404 348.082 8.00797 349.971 17.7553C351.859 27.5026 348.482 35.1212 342.368 35.1212Z" fill="#263238"/>
<path d="M380.237 35.1212L379.757 32.5763C384.286 32.5763 386.815 25.79 385.263 17.7553C383.71 9.72055 378.572 2.91826 374.059 2.91826C369.545 2.91826 367.001 9.72055 368.553 17.7553H366.008C364.136 8.00797 367.449 0.389404 373.579 0.389404C379.709 0.389404 385.951 8.00797 387.824 17.7553C389.696 27.5026 386.383 35.1212 380.237 35.1212Z" fill="#263238"/>
<path d="M216.486 96.9181H81.848L74.4375 58.5211H209.075L216.486 96.9181Z" fill="#3468AA"/>
<path d="M273.865 144.822H235.452L228.057 106.409H266.454L273.865 144.822Z" fill="#3468AA"/>
<path d="M394.002 193.991L391.921 192.182C387.651 188.443 382.898 185.293 377.789 182.819L379.117 178.898C383.876 181.2 388.355 184.041 392.466 187.365C399.555 176.853 408.837 168.001 419.675 161.42L422.54 165.325C411.508 172.029 402.165 181.18 395.234 192.07L394.002 193.991Z" fill="#3468AA"/>
<path d="M259.78 112.763H256.307L250.497 123.279L240.654 112.763H237.18L249.217 125.616L242.126 138.452H245.615L251.409 127.953L261.253 138.452H264.742L252.69 125.616L259.78 112.763Z" fill="white"/>
<path d="M330.956 204.747L337.358 238.054H304.067L297.665 204.747H330.972M333.037 202.202H294.624L302.035 240.615H340.448L333.053 202.202H333.037Z" fill="#3468AA"/>
<path d="M234.956 192.711H148.447L141.036 154.313H227.545L234.956 192.711Z" fill="#263238"/>
<path d="M175.367 169.631C175.598 170.523 175.616 171.456 175.422 172.357C175.227 173.257 174.824 174.1 174.245 174.817C173.667 175.534 172.928 176.105 172.089 176.486C171.25 176.867 170.334 177.046 169.413 177.009C167.335 176.932 165.341 176.164 163.748 174.828C162.154 173.492 161.05 171.664 160.61 169.631C160.383 168.739 160.367 167.807 160.564 166.907C160.76 166.008 161.163 165.167 161.741 164.451C162.319 163.735 163.056 163.164 163.893 162.782C164.73 162.4 165.645 162.219 166.564 162.252C168.642 162.332 170.634 163.101 172.227 164.436C173.821 165.772 174.925 167.599 175.367 169.631Z" fill="white"/>
<path d="M177.144 176.609C176.33 177.741 175.25 178.655 174 179.272C172.75 179.889 171.367 180.189 169.974 180.146C166.797 180.07 163.762 178.815 161.459 176.625C160.034 177.396 158.889 178.597 158.187 180.057C157.486 181.517 157.264 183.162 157.554 184.756H184.187C183.705 182.954 182.821 181.285 181.601 179.874C180.381 178.463 178.857 177.347 177.144 176.609Z" fill="white"/>
<path d="M220.535 171.119H191.085L190.269 166.878H219.719L220.535 171.119Z" fill="white"/>
<path d="M212.42 180.13H192.83L192.013 175.889H211.604L212.42 180.13Z" fill="white"/>
<path d="M367.049 62.1064C374.635 62.1064 385.375 63.2108 393.49 68.5086C394.964 69.3779 396.249 70.534 397.269 71.9086C398.289 73.2831 399.023 74.8482 399.428 76.5113C400.852 82.8015 397.507 89.6678 393.81 93.397C387.968 99.287 378.877 103 368.201 103.737C366.985 103.833 365.736 103.881 364.504 103.881C356.987 103.815 349.549 102.338 342.576 99.5271C335.71 96.7902 328.428 93.1249 326.379 85.9865C325.844 84.3417 325.68 82.5988 325.899 80.8831C326.117 79.1674 326.713 77.5214 327.643 76.0632C328.852 74.2123 330.453 72.6496 332.333 71.4856C341.201 66.0008 351.306 62.8359 361.719 62.2825C363.495 62.1705 365.288 62.1064 367.049 62.1064ZM366.568 59.6416C364.664 59.6416 362.823 59.6416 361.095 59.8337C350.321 60.4004 339.863 63.6699 330.684 69.3409C328.574 70.6544 326.777 72.4134 325.419 74.4946C324.333 76.2248 323.64 78.172 323.388 80.199C323.137 82.226 323.333 84.2835 323.962 86.2266C326.363 94.5174 334.574 98.8229 342.032 101.784C349.323 104.73 357.105 106.272 364.968 106.329C366.264 106.329 367.545 106.329 368.825 106.201C378.973 105.465 389.088 102.008 395.746 95.2857C402.405 88.5634 406.646 74.3026 394.562 66.4759C386.415 61.2101 375.756 59.6416 366.553 59.6416H366.568Z" fill="#263238"/>
</svg>
