<svg width="529" height="565" viewBox="0 0 529 565" fill="none" xmlns="http://www.w3.org/2000/svg">
<path d="M477.308 556.589L477.956 248.312C477.729 244.569 476.459 240.926 474.25 237.68C472.041 234.434 468.956 231.677 465.248 229.636L14.0115 9.35939C10.5154 7.69491 7.33353 7.46188 5.01587 8.56044L18.3719 2.01905C20.6895 0.770688 23.9893 0.870555 27.6425 2.65155L478.859 222.845C482.569 224.886 485.656 227.642 487.868 230.888C490.08 234.134 491.355 237.777 491.587 241.521L491.056 549.898C491.185 551.172 490.942 552.452 490.349 553.628C489.757 554.803 488.833 555.837 487.658 556.639L486.951 556.989L473.772 563.497C475.913 562.348 477.308 559.968 477.308 556.589Z" fill="url(#paint0_linear_462_3944)"/>
<path opacity="0.3" d="M18.3719 1.97022C20.6895 0.72186 23.9893 0.821727 27.6425 2.60272L478.859 222.846C483.079 225.081 486.48 228.268 488.68 232.051L475.029 238.709C472.859 234.94 469.493 231.758 465.307 229.521L14.0115 9.36049C10.5154 7.69602 7.33353 7.46299 5.01587 8.56154L18.3719 1.97022Z" fill="white"/>
<path opacity="0.2" d="M491.586 241.521L491.056 549.898C491.184 551.172 490.941 552.453 490.348 553.628C489.756 554.803 488.832 555.837 487.658 556.64L486.951 556.989L473.771 563.497C476.03 562.349 477.425 559.968 477.444 556.59L477.955 248.312C477.862 244.993 476.839 241.741 474.97 238.824L488.62 232.167C490.451 235.048 491.466 238.25 491.586 241.521Z" fill="white"/>
<path d="M477.935 262.227L477.307 556.589C477.307 559.918 475.893 562.348 473.634 563.497L473.438 563.597H473.339C471.041 564.612 467.938 564.429 464.501 562.748L13.2841 342.587C9.57866 340.542 6.49485 337.785 4.28333 334.54C2.07181 331.295 0.794997 327.654 0.556641 323.912L1.16551 29.1665L477.935 262.227Z" fill="url(#paint1_linear_462_3944)"/>
<path opacity="0.2" d="M477.935 262.227L477.307 556.589C477.307 559.918 475.893 562.348 473.634 563.497L473.438 563.597H473.339C471.041 564.612 467.938 564.429 464.501 562.748L13.2841 342.587C9.57866 340.542 6.49485 337.785 4.28333 334.54C2.07181 331.295 0.794997 327.654 0.556641 323.912L1.16551 29.1665L477.935 262.227Z" fill="black"/>
<path d="M57.2996 333.432L57.8102 88.7876L445.9 277.872L445.39 522.151L57.2996 333.432Z" fill="white"/>
<path d="M217.985 312.744L218.201 186.277L390.277 270.1L390.041 396.417L217.985 312.744Z" fill="#455A64"/>
<path d="M1.20472 15.5357C1.20472 12.2067 2.61887 9.79322 4.87761 8.64473C7.19527 7.54617 10.3771 7.72927 13.8733 9.44368L465.247 229.554C468.969 231.603 472.062 234.373 474.271 237.634C476.481 240.896 477.743 244.556 477.955 248.313V262.311L1.18506 29.2842L1.20472 15.5357Z" fill="url(#paint2_linear_462_3944)"/>
<path opacity="0.3" d="M1.20472 15.5357C1.20472 12.2067 2.61887 9.79322 4.87761 8.64473C7.19527 7.54617 10.3771 7.72927 13.8733 9.44368L465.247 229.554C468.969 231.603 472.062 234.373 474.271 237.634C476.481 240.896 477.743 244.556 477.955 248.313V262.311L1.18506 29.2842L1.20472 15.5357Z" fill="black"/>
<g opacity="0.39">
<path d="M34.987 30.4318C33.0229 29.4997 31.5105 30.2487 31.5105 32.0963C31.5656 33.1173 31.9081 34.1124 32.5095 34.9984C33.1108 35.8845 33.9536 36.6357 34.9673 37.1895C36.9315 38.1383 38.4635 37.3726 38.4635 35.5251C38.3983 34.5041 38.0494 33.5105 37.4453 32.6255C36.8412 31.7404 35.9989 30.9887 34.987 30.4318Z" fill="white"/>
<path d="M25.5595 25.7883C23.5954 24.8396 22.083 25.5886 22.083 27.4528C22.142 28.4773 22.4881 29.4751 23.0927 30.3637C23.6972 31.2524 24.5428 32.0061 25.5595 32.5627C27.5236 33.4948 29.0556 32.7458 29.0556 30.8983C28.9929 29.8726 28.6431 28.8743 28.0352 27.9858C27.4273 27.0972 26.5787 26.344 25.5595 25.7883Z" fill="white"/>
<path d="M15.9745 21.1286C14.0104 20.1964 12.498 20.9455 12.498 22.793C12.5532 23.8141 12.8957 24.8092 13.497 25.6952C14.0984 26.5812 14.9411 27.3325 15.9549 27.8863C17.919 28.8351 19.451 28.0861 19.451 26.2219C19.3827 25.2015 19.0326 24.2089 18.4287 23.3242C17.8249 22.4396 16.9842 21.6875 15.9745 21.1286Z" fill="white"/>
</g>
<path d="M33.5732 130.966L33.5139 146.329L33.5732 130.966Z" fill="white"/>
<path d="M33.495 152.238L17.7231 144.515L33.495 152.238L33.4557 167.601L33.495 152.238Z" fill="white"/>
<path d="M17.8796 96.0962L33.6712 103.819L17.8796 96.0962Z" fill="white"/>
<path d="M24.5388 105.25L33.6523 109.711L33.5934 125.074L33.6523 109.711L24.5388 105.25Z" fill="white"/>
<path d="M17.8215 117.352L33.5934 125.075L17.8215 117.352Z" fill="white"/>
<path d="M17.7434 138.605L33.5153 146.329L17.7434 138.605Z" fill="white"/>
<path d="M23.9885 267.603L33.102 272.064L33.0431 287.427L33.102 272.064L23.9885 267.603Z" fill="white"/>
<path d="M17.8023 123.26L33.5742 130.966L33.5153 146.329L17.7434 138.606L17.8023 123.26Z" fill="white"/>
<path d="M33.4557 167.601L17.6838 159.878L17.7231 144.515L33.495 152.238L33.4557 167.601Z" fill="white"/>
<path d="M17.4681 221.829L33.24 229.552L33.181 244.915L17.4092 237.192L17.4681 221.829Z" fill="white"/>
<path d="M33.1224 266.155L17.3506 258.449L17.3898 243.085L33.1814 250.809L33.1224 266.155Z" fill="white"/>
<path d="M17.5467 200.575L33.3186 208.281L33.2597 223.644L17.4878 215.921L17.5467 200.575Z" fill="white"/>
<path d="M12.1057 303.439L38.0517 316.122L38.4249 205.834L12.4789 193.134L12.1057 303.439ZM17.3892 243.085L33.1021 250.808V266.171L17.3892 258.448V243.085ZM33.2593 223.644L17.5463 215.92V200.574L33.2593 208.281V223.644ZM33.2593 244.916L17.5463 237.192V221.829L33.2593 229.553V244.916ZM33.1218 287.426L17.4089 279.703V264.357L24.0672 267.686L33.1807 272.146V287.51L33.1218 287.426ZM17.291 300.959V285.595L33.0039 293.319V308.682L17.291 300.959Z" fill="url(#paint3_linear_462_3944)"/>
<path d="M12.5181 183.596L38.4444 196.296L38.8176 85.991L12.8716 73.291L12.5181 183.596ZM33.6716 103.818L17.9587 96.0943V80.7312L33.6716 88.4544V103.818ZM33.6716 125.073L17.9587 117.35V101.987L24.6367 105.316L33.7502 109.776L33.6716 125.073ZM33.6716 146.328L17.9587 138.622V123.259L33.6716 130.965V146.328ZM33.6716 167.6L17.9587 159.877V144.514L33.6716 152.237V167.6ZM33.6716 188.856L17.9587 181.132V165.769L33.6716 173.493V188.856Z" fill="url(#paint4_linear_462_3944)"/>
<path d="M12.1057 303.439L38.0517 316.122L38.4249 205.834L12.4789 193.134L12.1057 303.439ZM17.3892 243.085L33.1021 250.808V266.171L17.3892 258.448V243.085ZM33.2593 223.644L17.5463 215.92V200.574L33.2593 208.281V223.644ZM33.2593 244.916L17.5463 237.192V221.829L33.2593 229.553V244.916ZM33.1218 287.426L17.4089 279.703V264.357L24.0672 267.686L33.1807 272.146V287.51L33.1218 287.426ZM17.291 300.959V285.595L33.0039 293.319V308.682L17.291 300.959Z" fill="#455A64"/>
<path d="M12.5181 183.596L38.4444 196.296L38.8176 85.991L12.8716 73.291L12.5181 183.596ZM33.6716 103.818L17.9587 96.0943V80.7312L33.6716 88.4544V103.818ZM33.6716 125.073L17.9587 117.35V101.987L24.6367 105.316L33.7502 109.776L33.6716 125.073ZM33.6716 146.328L17.9587 138.622V123.259L33.6716 130.965V146.328ZM33.6716 167.6L17.9587 159.877V144.514L33.6716 152.237V167.6ZM33.6716 188.856L17.9587 181.132V165.769L33.6716 173.493V188.856Z" fill="#455A64"/>
<path d="M17.8215 117.352L17.8608 101.989L24.5388 105.251L33.6523 109.712L33.5934 125.075L17.8215 117.352Z" fill="white"/>
<path d="M12.8716 73.2927L12.9109 64.7373L38.8569 77.4206L38.8176 85.9927L12.8716 73.2927Z" fill="white"/>
<path d="M17.8796 96.0955L17.9386 80.7324L33.7104 88.4556L33.6712 103.819L17.8796 96.0955Z" fill="white"/>
<path d="M17.6448 165.771L33.4363 173.494L33.3773 188.857L17.6055 181.134L17.6448 165.771Z" fill="white"/>
<path d="M17.2712 279.704L17.3302 264.341L23.9885 267.603L33.102 272.064L33.0431 287.427L17.2712 279.704Z" fill="white"/>
<path d="M33.024 293.319L32.9848 308.682L17.2129 300.959L17.2522 285.596L33.024 293.319Z" fill="white"/>
<path d="M350.366 400.961L350.326 407.968L217.473 342.022L217.513 335.014L350.366 400.961Z" fill="#37474F"/>
<path d="M111.177 333.691C117.377 330.638 117.362 320.812 111.143 311.743C104.925 302.674 94.8579 297.797 88.6584 300.85C82.4588 303.903 82.4741 313.729 88.6926 322.798C94.911 331.867 104.978 336.744 111.177 333.691Z" fill="#E0E0E0"/>
<path d="M100.196 262.526C108.976 266.821 116.086 277.24 116.047 285.829C116.007 294.418 108.877 297.83 100.098 293.536C91.3183 289.241 84.2082 278.822 84.2475 270.233C84.2868 261.644 91.3183 258.299 100.196 262.526Z" fill="#E0E0E0"/>
<path d="M143.407 283.665C152.186 287.959 159.296 298.379 159.257 306.968C159.218 315.556 152.088 318.969 143.308 314.674C134.529 310.38 127.419 299.96 127.458 291.372C127.497 282.783 134.529 279.371 143.407 283.665Z" fill="#E0E0E0"/>
<path d="M186.382 344.052C195.162 348.346 202.252 358.766 202.232 367.354C202.213 375.943 195.063 379.355 186.264 375.061C177.465 370.767 170.394 360.347 170.414 351.758C170.433 343.17 177.583 339.757 186.382 344.052Z" fill="#E0E0E0"/>
<path d="M197.715 336.732C203.914 333.679 203.899 323.853 197.681 314.784C191.462 305.715 181.396 300.838 175.196 303.891C168.996 306.944 169.012 316.77 175.23 325.839C181.449 334.908 191.515 339.785 197.715 336.732Z" fill="#E0E0E0"/>
<path d="M154.372 354.842C160.572 351.789 160.557 341.963 154.338 332.894C148.12 323.825 138.053 318.948 131.853 322.001C125.654 325.053 125.669 334.88 131.888 343.949C138.106 353.018 148.173 357.895 154.372 354.842Z" fill="#E0E0E0"/>
<path d="M523.719 176.905L353.568 93.6148C353.074 93.3102 352.493 93.1232 351.885 93.0735C351.277 93.0237 350.664 93.1129 350.111 93.3318L337.384 101.055C337.935 100.848 338.54 100.767 339.139 100.82C339.739 100.872 340.312 101.057 340.801 101.355L511.051 184.662C512.435 185.445 513.585 186.49 514.41 187.715C515.235 188.94 515.712 190.311 515.804 191.719L515.136 320.533C515.194 321.028 515.1 321.527 514.862 321.983C514.625 322.438 514.252 322.833 513.781 323.129L526.666 315.306C527.094 314.998 527.43 314.608 527.645 314.168C527.861 313.728 527.949 313.251 527.903 312.776L528.571 183.963C528.468 182.547 527.976 181.171 527.133 179.946C526.291 178.721 525.122 177.679 523.719 176.905Z" fill="url(#paint5_linear_462_3944)"/>
<path d="M515.136 320.6L515.804 191.72C515.713 190.293 515.227 188.904 514.384 187.666C513.541 186.428 512.365 185.376 510.953 184.596L340.703 101.372C340.213 101.074 339.641 100.889 339.041 100.837C338.442 100.784 337.836 100.865 337.285 101.072C336.779 101.365 336.376 101.769 336.12 102.241C335.864 102.714 335.764 103.236 335.832 103.752L335.164 232.566C335.255 233.993 335.741 235.382 336.584 236.62C337.427 237.857 338.603 238.909 340.015 239.69L510.265 322.914C510.766 323.229 511.362 323.417 511.984 323.459C512.605 323.5 513.228 323.392 513.781 323.147C514.243 322.855 514.61 322.468 514.847 322.022C515.084 321.577 515.184 321.087 515.136 320.6Z" fill="#455A64"/>
<g opacity="0.3">
<path d="M361.699 195.731L361.66 211.011L345.967 203.337L346.025 188.058L361.699 195.731Z" fill="black"/>
</g>
<g opacity="0.3">
<path d="M361.699 224.326L361.66 239.589L345.967 231.916L346.025 216.636L361.699 224.326Z" fill="black"/>
</g>
<path d="M377.392 231.983L377.353 247.263L361.66 239.59L361.719 224.327L377.392 231.983Z" fill="white"/>
<g opacity="0.5">
<path d="M464.305 250.592L464.286 256.551L370.951 210.894L370.97 204.936L464.305 250.592Z" fill="white"/>
</g>
<g opacity="0.3">
<path d="M361.777 172.311L361.738 187.575L346.045 179.901L346.104 164.638L361.777 172.311Z" fill="black"/>
</g>
<g opacity="0.5">
<path d="M464.461 203.737L464.442 209.696L371.107 164.039L371.126 158.064L464.461 203.737Z" fill="white"/>
</g>
<g opacity="0.5">
<path d="M464.383 227.173L464.364 233.132L371.029 187.475L371.048 181.516L464.383 227.173Z" fill="white"/>
</g>
<g opacity="0.3">
<path d="M361.856 148.876L361.817 164.156L346.124 156.483L346.183 141.203L361.856 148.876Z" fill="black"/>
</g>
<path d="M505 218.901L504.941 234.181L472.73 218.419L472.789 203.139L505 218.901Z" fill="white"/>
<path d="M504.844 265.771L504.785 281.035L472.574 265.272L472.633 250.009L504.844 265.771Z" fill="white"/>
<path d="M504.922 242.336L504.863 257.616L472.652 241.854L472.711 226.574L504.922 242.336Z" fill="white"/>
<g opacity="0.3">
<path d="M510.953 184.646C512.358 185.422 513.529 186.466 514.371 187.694C515.214 188.923 515.704 190.302 515.804 191.72V204.054L411.117 152.821V135.76L510.953 184.646Z" fill="black"/>
</g>
<path d="M401.668 138.805L343.295 110.243L343.275 115.885L401.668 144.448V138.805Z" fill="white"/>
<path d="M496.535 181.865V183.463L508.3 189.222V187.624L496.535 181.865Z" fill="white"/>
<path d="M496.516 191.636L508.261 197.379L508.281 195.814L496.516 190.055V191.636Z" fill="white"/>
<path d="M496.535 186.193L508.281 191.935L508.3 190.354L496.535 184.595V186.193Z" fill="white"/>
<path d="M496.516 188.906L508.281 194.649V193.084L496.516 187.325V188.906Z" fill="white"/>
<path d="M523.719 176.905L353.568 93.6148C353.074 93.3102 352.493 93.1232 351.885 93.0735C351.277 93.0237 350.664 93.1129 350.111 93.3318L337.384 101.055C337.935 100.848 338.54 100.767 339.139 100.82C339.739 100.872 340.312 101.057 340.801 101.355L511.051 184.662C512.654 185.52 513.94 186.743 514.763 188.19L528.139 181.682C527.352 179.709 525.793 178.023 523.719 176.905Z" fill="#37474F"/>
<path d="M514.626 188.192C515.328 189.299 515.718 190.53 515.765 191.787L515.097 320.601C515.155 321.096 515.061 321.595 514.824 322.05C514.586 322.506 514.213 322.901 513.742 323.197L526.627 315.374C527.055 315.066 527.391 314.676 527.606 314.236C527.822 313.796 527.91 313.319 527.864 312.844L528.532 184.031C528.512 183.228 528.333 182.435 528.001 181.684L514.626 188.192Z" fill="#263238"/>
<path d="M260.783 84.311L90.533 1.08714C90.0384 0.784608 89.4587 0.597663 88.8519 0.545074C88.2451 0.492485 87.6327 0.576106 87.0761 0.787538L74.3486 8.52735C74.8997 8.32049 75.505 8.23931 76.1045 8.29186C76.7039 8.34442 77.2768 8.52888 77.7662 8.82696L248.016 92.134C249.429 92.9146 250.604 93.9664 251.447 95.2042C252.29 96.4421 252.777 97.8309 252.867 99.2579L252.2 158.164C252.256 158.657 252.163 159.155 251.929 159.609C251.695 160.063 251.329 160.46 250.864 160.76L263.748 152.937C264.17 152.628 264.499 152.24 264.711 151.804C264.922 151.367 265.01 150.894 264.966 150.424L265.634 91.5015C265.556 90.0629 265.075 88.6608 264.231 87.4106C263.388 86.1604 262.206 85.098 260.783 84.311Z" fill="url(#paint6_linear_462_3944)"/>
<path d="M252.2 158.097L252.868 99.1914C252.777 97.7643 252.29 96.3755 251.447 95.1377C250.605 93.8999 249.429 92.848 248.016 92.0674L77.7666 8.84361C77.2772 8.54554 76.7043 8.36108 76.1049 8.30852C75.5054 8.25597 74.9001 8.33715 74.349 8.54401C73.8489 8.838 73.4504 9.23986 73.1949 9.70806C72.9394 10.1763 72.8361 10.6938 72.8956 11.2072L72.2278 70.1296C72.3185 71.5567 72.8051 72.9455 73.648 74.1833C74.491 75.4211 75.6665 76.473 77.0792 77.2536L247.329 160.477C247.834 160.792 248.433 160.98 249.057 161.022C249.682 161.063 250.308 160.955 250.864 160.71C251.332 160.408 251.701 160.009 251.935 159.552C252.168 159.094 252.26 158.593 252.2 158.097Z" fill="#455A64"/>
<g opacity="0.5">
<path d="M105.047 56.065L104.969 77.1207L83.3635 66.5512L83.4225 45.4956L105.047 56.065Z" fill="white"/>
</g>
<g opacity="0.5">
<path d="M138.752 71.878L138.674 92.9503L117.068 82.3809L117.127 61.3086L138.752 71.878Z" fill="white"/>
</g>
<g opacity="0.5">
<path d="M172.437 87.7067L172.378 108.762L150.753 98.1929L150.831 77.1206L172.437 87.7067Z" fill="white"/>
</g>
<g opacity="0.5">
<path d="M206.141 103.519L206.082 124.574L184.458 114.005L184.536 92.9492L206.141 103.519Z" fill="white"/>
</g>
<g opacity="0.5">
<path d="M239.845 119.331L239.766 140.403L218.161 129.817L218.24 108.762L239.845 119.331Z" fill="white"/>
</g>
<g opacity="0.3">
<path d="M248.016 92.0512C249.429 92.8318 250.604 93.8836 251.447 95.1215C252.29 96.3593 252.777 97.7481 252.868 99.1752V111.492L148.141 60.2264V43.1655L248.016 92.0512Z" fill="black"/>
</g>
<path d="M138.752 46.2113L80.3783 17.6489L80.3586 23.2915L138.732 51.8539L138.752 46.2113Z" fill="white"/>
<path d="M233.619 89.2715L233.599 90.8694L245.364 96.6118V95.0306L233.619 89.2715Z" fill="white"/>
<path d="M233.58 99.0412L245.345 104.784V103.219L233.58 97.46V99.0412Z" fill="white"/>
<path d="M233.599 93.5989L245.364 99.3413V97.7601L233.599 92.001V93.5989Z" fill="white"/>
<path d="M233.58 96.3122L245.345 102.055V100.49L233.6 94.731L233.58 96.3122Z" fill="white"/>
<path d="M260.783 84.311L90.533 1.08714C90.0384 0.784608 89.4587 0.597663 88.8519 0.545074C88.2451 0.492485 87.6327 0.576106 87.0761 0.787538L74.3486 8.52735C74.8997 8.32049 75.505 8.23931 76.1045 8.29186C76.7039 8.34442 77.2768 8.52888 77.7662 8.82696L248.016 92.134C249.619 92.9921 250.905 94.2149 251.728 95.6627L265.182 89.088C264.407 87.1147 262.853 85.4278 260.783 84.311Z" fill="#37474F"/>
<path d="M251.728 95.596C252.431 96.7038 252.821 97.9344 252.867 99.1913L252.2 158.097C252.256 158.59 252.163 159.088 251.929 159.542C251.696 159.997 251.329 160.393 250.864 160.694L263.749 152.871C264.17 152.562 264.499 152.173 264.711 151.737C264.922 151.3 265.01 150.828 264.966 150.357L265.634 91.4348C265.615 90.6328 265.435 89.8393 265.104 89.0879L251.728 95.596Z" fill="#263238"/>
<path d="M523.719 343.952L353.47 260.728C352.975 260.426 352.395 260.239 351.789 260.186C351.182 260.134 350.569 260.217 350.013 260.429L337.285 268.168C337.836 267.962 338.442 267.88 339.041 267.933C339.641 267.986 340.214 268.17 340.703 268.468L510.953 351.775C512.365 352.556 513.541 353.608 514.384 354.845C515.227 356.083 515.713 357.472 515.804 358.899L515.136 556.006C515.194 556.502 515.1 557.001 514.863 557.456C514.625 557.911 514.252 558.306 513.781 558.603L526.666 550.78C527.094 550.472 527.43 550.082 527.645 549.642C527.861 549.202 527.949 548.725 527.903 548.25L528.571 351.143C528.492 349.704 528.011 348.302 527.168 347.052C526.325 345.802 525.143 344.739 523.719 343.952Z" fill="url(#paint7_linear_462_3944)"/>
<path d="M515.136 555.94L515.804 358.833C515.713 357.406 515.227 356.017 514.384 354.779C513.541 353.541 512.365 352.489 510.953 351.709L340.703 268.402C340.213 268.104 339.641 267.919 339.041 267.867C338.442 267.814 337.836 267.895 337.285 268.102C336.782 268.394 336.381 268.795 336.125 269.264C335.87 269.733 335.768 270.252 335.832 270.765L335.164 467.889C335.255 469.316 335.741 470.705 336.584 471.943C337.427 473.181 338.603 474.233 340.015 475.013L510.265 558.237C510.766 558.552 511.362 558.741 511.984 558.782C512.605 558.823 513.228 558.715 513.781 558.47C514.24 558.179 514.605 557.795 514.842 557.353C515.079 556.91 515.18 556.424 515.136 555.94Z" fill="url(#paint8_linear_462_3944)"/>
<g opacity="0.3">
<path d="M510.953 351.692C512.365 352.472 513.541 353.524 514.384 354.762C515.227 356 515.713 357.389 515.804 358.816V371.133L411.077 319.884V302.823L510.953 351.692Z" fill="black"/>
</g>
<path d="M354.845 407.669L342.903 401.827L342.864 414.128L354.805 419.97L354.845 407.669Z" fill="white"/>
<path d="M354.903 390.258L342.961 384.416L342.922 396.716L354.863 402.559L354.903 390.258Z" fill="white"/>
<path d="M401.668 305.837L343.295 277.291L343.275 282.934L401.668 311.496V305.837Z" fill="white"/>
<path d="M503.43 402.576L502.291 400.911L500.131 401.943L497.99 398.814L496.831 399.347L500.131 404.174L503.43 402.576Z" fill="white"/>
<path d="M355.002 364.591L343.041 358.749L343.001 371.05L354.943 376.908L355.002 364.591Z" fill="white"/>
<path d="M355.06 347.182L343.099 341.339L343.06 353.64L355.021 359.499L355.06 347.182Z" fill="white"/>
<path d="M343.177 318.769L343.138 331.086L492.096 403.956L492.136 391.656L343.177 318.769Z" fill="url(#paint9_linear_462_3944)"/>
<path d="M492.098 403.956L508.125 411.796V399.495L492.098 391.656V403.956ZM497.99 398.813L500.131 401.942L502.291 400.91L503.431 402.575L500.131 404.239L496.831 399.412L497.99 398.813Z" fill="url(#paint10_linear_462_3944)"/>
<path d="M343.237 300.444L343.197 312.744L492.156 385.632L492.195 373.331L343.237 300.444Z" fill="url(#paint11_linear_462_3944)"/>
<path d="M503.488 384.25L502.349 382.569L500.189 383.601L498.048 380.455L496.889 381.021L500.189 385.831L503.488 384.25Z" fill="white"/>
<path d="M492.156 385.632L508.183 393.471V381.171L492.156 373.331V385.632ZM498.048 380.455L500.189 383.601L502.35 382.569L503.489 384.233L500.189 385.898L496.948 381.021L498.048 380.455Z" fill="url(#paint12_linear_462_3944)"/>
<path d="M410.861 379.888L409.722 378.207L407.561 379.256L405.421 376.11L404.262 376.659L407.561 381.486L410.861 379.888Z" fill="white"/>
<path d="M415.556 389.11V376.81L399.528 368.97V381.271L415.556 389.11ZM405.421 376.111L407.562 379.257L409.722 378.208L410.861 379.873L407.562 381.537L404.262 376.71L405.421 376.111Z" fill="url(#paint13_linear_462_3944)"/>
<path d="M361.031 379.872L399.468 398.681L399.508 386.38L361.07 367.572L361.031 379.872Z" fill="url(#paint14_linear_462_3944)"/>
<path d="M399.567 368.97L361.129 350.161L361.09 362.478L399.528 381.27L399.567 368.97Z" fill="url(#paint15_linear_462_3944)"/>
<path d="M407.502 398.897L410.802 397.299L409.663 395.618L407.502 396.65L405.361 393.521L404.222 394.07L407.502 398.897Z" fill="white"/>
<path d="M399.469 398.681L415.496 406.521V394.22L399.508 386.464V398.764L399.469 398.681ZM405.361 393.521L407.502 396.65L409.663 395.618L410.802 397.283L407.502 398.947L404.222 394.12L405.361 393.521Z" fill="url(#paint16_linear_462_3944)"/>
<path d="M491.96 443.937L507.987 451.776V439.476L491.96 431.636V443.937ZM496.713 439.326L497.852 438.76L499.993 441.906L502.153 440.857L503.293 442.522L499.993 444.186L496.713 439.359V439.326Z" fill="url(#paint17_linear_462_3944)"/>
<path d="M491.88 469.687L507.908 477.526V465.226L491.88 457.386V469.687ZM497.773 464.527L499.914 467.673L502.054 466.624L503.213 468.289L499.914 469.953L496.614 465.126L497.773 464.527Z" fill="url(#paint18_linear_462_3944)"/>
<path d="M491.822 487.014L507.849 494.854V482.537L491.861 474.681L491.822 487.014ZM497.714 481.838L499.855 484.984L502.016 483.935L503.155 485.6L499.855 487.264L496.555 482.454L497.714 481.838Z" fill="url(#paint19_linear_462_3944)"/>
<path d="M453.423 455.888L453.384 468.205L491.822 487.014L491.861 474.697L453.423 455.888Z" fill="url(#paint20_linear_462_3944)"/>
<path d="M453.483 438.495L453.444 450.796L491.881 469.604L491.921 457.304L453.483 438.495Z" fill="url(#paint21_linear_462_3944)"/>
<path d="M453.561 412.829L453.522 425.13L491.96 443.938L492.019 431.638L453.561 412.829Z" fill="url(#paint22_linear_462_3944)"/>
<path d="M453.619 395.418L453.58 407.718L492.018 426.527L492.057 414.227L453.619 395.418Z" fill="url(#paint23_linear_462_3944)"/>
<path d="M503.352 425.146L502.213 423.465L500.052 424.513L497.912 421.351L496.753 421.917L500.052 426.744L503.352 425.146Z" fill="white"/>
<path d="M492.058 414.226V426.527L508.085 434.366V422.066L492.058 414.226ZM497.95 421.35L500.091 424.513L502.252 423.464L503.391 425.128L500.091 426.793L496.791 421.966L497.95 421.35Z" fill="url(#paint24_linear_462_3944)"/>
<path d="M435.491 416.307L447.452 422.15L447.492 409.849L435.53 404.007L435.491 416.307Z" fill="white"/>
<path d="M447.551 392.438L435.59 386.596L435.55 398.896L447.492 404.755L447.551 392.438Z" fill="white"/>
<path d="M499.993 444.155L503.292 442.557L502.153 440.859L499.993 441.908L497.852 438.762L496.713 439.328L499.993 444.155Z" fill="white"/>
<path d="M360.952 405.538L399.39 424.346L399.429 412.046L360.992 393.237L360.952 405.538Z" fill="url(#paint25_linear_462_3944)"/>
<path d="M399.391 424.347L415.418 432.187V419.886L399.391 412.046V424.347ZM405.283 419.187L407.424 422.333L409.565 421.284L410.724 422.949L407.424 424.613L404.124 419.786L405.283 419.187Z" fill="url(#paint26_linear_462_3944)"/>
<path d="M407.423 424.563L410.723 422.965L409.564 421.284L407.423 422.333L405.282 419.187L404.124 419.736L407.423 424.563Z" fill="white"/>
<path d="M407.366 439.744L405.225 436.581L404.066 437.147L407.366 441.974L410.665 440.376L409.526 438.678L407.366 439.744Z" fill="white"/>
<path d="M399.331 441.758L415.358 449.597V437.297L399.331 429.457V441.758ZM405.223 436.581L407.364 439.744L409.525 438.678L410.664 440.343L407.364 442.007L404.065 437.18L405.223 436.581Z" fill="url(#paint27_linear_462_3944)"/>
<path d="M375.606 454.658L375.645 442.357L363.703 436.515L363.664 448.816L375.606 454.658Z" fill="white"/>
<path d="M360.894 422.949L399.331 441.758L399.371 429.457L360.933 410.648L360.894 422.949Z" fill="url(#paint28_linear_462_3944)"/>
<path d="M399.194 481.006L342.726 453.375L342.686 465.676L399.155 493.306L399.194 481.006Z" fill="url(#paint29_linear_462_3944)"/>
<path d="M405.99 491.758L407.188 493.523L410.488 491.925L409.348 490.244L407.188 491.292L405.047 488.146L403.888 488.696L405.99 491.758Z" fill="white"/>
<path d="M399.194 481.005V493.306L415.221 501.146V488.845L399.194 481.005ZM405.086 488.146L407.188 491.325L409.349 490.277L410.488 491.941L407.188 493.605L405.99 491.841L403.888 488.778L405.086 488.146Z" fill="url(#paint30_linear_462_3944)"/>
<path d="M491.685 526.263L435.217 498.632L435.177 510.933L491.646 538.563L491.685 526.263Z" fill="url(#paint31_linear_462_3944)"/>
<path opacity="0.3" d="M343.177 318.769L343.138 331.086L492.096 403.956L492.136 391.656L343.177 318.769Z" fill="black"/>
<path opacity="0.3" d="M343.237 300.444L343.197 312.744L492.156 385.632L492.195 373.331L343.237 300.444Z" fill="black"/>
<path opacity="0.3" d="M361.031 379.872L399.468 398.681L399.508 386.38L361.07 367.572L361.031 379.872Z" fill="black"/>
<path opacity="0.3" d="M399.567 368.97L361.129 350.161L361.09 362.478L399.528 381.27L399.567 368.97Z" fill="black"/>
<path opacity="0.3" d="M453.423 455.888L453.384 468.205L491.822 487.014L491.861 474.697L453.423 455.888Z" fill="black"/>
<path opacity="0.3" d="M453.483 438.495L453.444 450.796L491.881 469.604L491.921 457.304L453.483 438.495Z" fill="black"/>
<path opacity="0.3" d="M453.561 412.829L453.522 425.13L491.96 443.938L492.019 431.638L453.561 412.829Z" fill="black"/>
<path opacity="0.3" d="M453.619 395.418L453.58 407.718L492.018 426.527L492.057 414.227L453.619 395.418Z" fill="black"/>
<path opacity="0.3" d="M360.952 405.538L399.39 424.346L399.429 412.046L360.992 393.237L360.952 405.538Z" fill="black"/>
<path opacity="0.3" d="M360.894 422.949L399.331 441.758L399.371 429.457L360.933 410.648L360.894 422.949Z" fill="black"/>
<path opacity="0.3" d="M399.194 481.006L342.726 453.375L342.686 465.676L399.155 493.306L399.194 481.006Z" fill="black"/>
<path opacity="0.3" d="M491.685 526.263L435.217 498.632L435.177 510.933L491.646 538.563L491.685 526.263Z" fill="black"/>
<path d="M491.685 526.279V538.579L507.712 546.419V534.118L491.685 526.279ZM497.577 533.403L498.363 534.551L499.718 536.565L501.878 535.5L503.018 537.164L499.718 538.829L496.418 534.002L497.577 533.403Z" fill="url(#paint32_linear_462_3944)"/>
<path opacity="0.4" d="M492.098 403.956L508.125 411.796V399.495L492.098 391.656V403.956ZM497.99 398.813L500.131 401.942L502.291 400.91L503.431 402.575L500.131 404.239L496.831 399.412L497.99 398.813Z" fill="black"/>
<path opacity="0.4" d="M492.156 385.632L508.183 393.471V381.171L492.156 373.331V385.632ZM498.048 380.455L500.189 383.601L502.35 382.569L503.489 384.233L500.189 385.898L496.948 381.021L498.048 380.455Z" fill="black"/>
<path opacity="0.4" d="M415.556 389.11V376.81L399.528 368.97V381.271L415.556 389.11ZM405.421 376.111L407.562 379.257L409.722 378.208L410.861 379.873L407.562 381.537L404.262 376.71L405.421 376.111Z" fill="black"/>
<path opacity="0.4" d="M399.469 398.681L415.496 406.521V394.22L399.508 386.464V398.764L399.469 398.681ZM405.361 393.521L407.502 396.65L409.663 395.618L410.802 397.283L407.502 398.947L404.222 394.12L405.361 393.521Z" fill="black"/>
<path opacity="0.4" d="M491.96 443.937L507.987 451.776V439.476L491.96 431.636V443.937ZM496.713 439.326L497.852 438.76L499.993 441.906L502.153 440.857L503.293 442.522L499.993 444.186L496.713 439.359V439.326Z" fill="black"/>
<path opacity="0.4" d="M491.88 469.687L507.908 477.526V465.226L491.88 457.386V469.687ZM497.773 464.527L499.914 467.673L502.054 466.624L503.213 468.289L499.914 469.953L496.614 465.126L497.773 464.527Z" fill="black"/>
<path opacity="0.4" d="M491.822 487.014L507.849 494.854V482.537L491.861 474.681L491.822 487.014ZM497.714 481.838L499.855 484.984L502.016 483.935L503.155 485.6L499.855 487.264L496.555 482.454L497.714 481.838Z" fill="black"/>
<path opacity="0.4" d="M492.058 414.226V426.527L508.085 434.366V422.066L492.058 414.226ZM497.95 421.35L500.091 424.513L502.252 423.464L503.391 425.128L500.091 426.793L496.791 421.966L497.95 421.35Z" fill="black"/>
<path opacity="0.4" d="M399.391 424.347L415.418 432.187V419.886L399.391 412.046V424.347ZM405.283 419.187L407.424 422.333L409.565 421.284L410.724 422.949L407.424 424.613L404.124 419.786L405.283 419.187Z" fill="black"/>
<path opacity="0.4" d="M399.331 441.758L415.358 449.597V437.297L399.331 429.457V441.758ZM405.223 436.581L407.364 439.744L409.525 438.678L410.664 440.343L407.364 442.007L404.065 437.18L405.223 436.581Z" fill="black"/>
<path opacity="0.4" d="M399.194 481.005V493.306L415.221 501.146V488.845L399.194 481.005ZM405.086 488.146L407.188 491.325L409.349 490.277L410.488 491.941L407.188 493.605L405.99 491.841L403.888 488.778L405.086 488.146Z" fill="black"/>
<path opacity="0.4" d="M491.685 526.279V538.579L507.712 546.419V534.118L491.685 526.279ZM497.577 533.403L498.363 534.551L499.718 536.565L501.878 535.5L503.018 537.164L499.718 538.829L496.418 534.002L497.577 533.403Z" fill="black"/>
<path d="M502.979 537.182L501.84 535.501L499.679 536.55L498.324 534.536L497.538 533.387L496.379 533.953L499.679 538.78L502.979 537.182Z" fill="white"/>
<path d="M435.353 459.384L447.295 465.227L447.334 452.926L435.392 447.067L435.353 459.384Z" fill="white"/>
<path d="M435.413 441.973L447.355 447.816L447.394 435.515L435.452 429.656L435.413 441.973Z" fill="white"/>
<path d="M503.214 468.223L502.075 466.542L499.915 467.59L497.774 464.444L496.615 464.994L499.895 469.821L503.214 468.223Z" fill="white"/>
<path d="M503.155 485.616L501.996 483.935L499.855 484.983L497.714 481.837L496.555 482.387L499.855 487.214L503.155 485.616Z" fill="white"/>
<path d="M354.765 432.136L342.823 426.294L342.764 438.594L354.726 444.437L354.765 432.136Z" fill="white"/>
<path d="M410.684 471.818L422.626 477.66L422.665 465.359L410.723 459.517L410.684 471.818Z" fill="white"/>
<path d="M431.543 482.021L443.504 487.88L443.544 475.579L431.582 469.72L431.543 482.021Z" fill="white"/>
<path d="M474.97 490.943L474.931 503.26L486.872 509.102L486.912 496.802L474.97 490.943Z" fill="white"/>
<path d="M495.789 513.463L507.77 519.322L507.809 507.022L495.848 501.163L495.789 513.463Z" fill="white"/>
<path d="M496.535 348.913V350.511L508.3 356.253V354.672L496.535 348.913Z" fill="white"/>
<path d="M496.516 358.683L508.261 364.425L508.281 362.844L496.516 357.102V358.683Z" fill="white"/>
<path d="M496.535 353.24L508.281 358.983L508.3 357.402L496.535 351.643V353.24Z" fill="white"/>
<path d="M496.516 355.953L508.281 361.696V360.131L496.516 354.372V355.953Z" fill="white"/>
<path opacity="0.3" d="M523.719 343.952L353.47 260.728C352.975 260.426 352.395 260.239 351.789 260.186C351.182 260.134 350.569 260.217 350.013 260.429L337.285 268.168C337.836 267.962 338.442 267.88 339.041 267.933C339.641 267.986 340.214 268.17 340.703 268.468L510.953 351.775C512.56 352.629 513.848 353.853 514.665 355.304L528.04 348.796C527.301 346.808 525.775 345.097 523.719 343.952Z" fill="white"/>
<path opacity="0.2" d="M514.626 355.238C515.328 356.345 515.718 357.576 515.765 358.833L515.097 555.94C515.155 556.435 515.061 556.935 514.824 557.39C514.586 557.845 514.213 558.24 513.742 558.537L526.627 550.714C527.055 550.406 527.391 550.015 527.606 549.575C527.822 549.135 527.91 548.658 527.864 548.184L528.532 351.076C528.512 350.274 528.333 349.481 528.001 348.729L514.626 355.238Z" fill="white"/>
<path d="M310.26 426.145L310.24 433.169L217.337 386.747L217.357 379.739L310.26 426.145Z" fill="#37474F"/>
<path d="M286.886 391.34L286.866 398.348L217.415 363.427L217.435 356.403L286.886 391.34Z" fill="#37474F"/>
<path d="M350.248 434.999L350.228 442.007L217.375 376.06L217.395 369.036L350.248 434.999Z" fill="#37474F"/>
<path d="M350.327 411.664L350.288 418.671L217.455 352.708L217.474 345.717L350.327 411.664Z" fill="#37474F"/>
<defs>
<linearGradient id="paint0_linear_462_3944" x1="248.301" y1="1.18262" x2="248.301" y2="563.497" gradientUnits="userSpaceOnUse">
<stop stop-color="#4487DA"/>
<stop offset="1" stop-color="#13427C"/>
</linearGradient>
<linearGradient id="paint1_linear_462_3944" x1="239.246" y1="29.1665" x2="239.246" y2="564.221" gradientUnits="userSpaceOnUse">
<stop stop-color="#4487DA"/>
<stop offset="1" stop-color="#13427C"/>
</linearGradient>
<linearGradient id="paint2_linear_462_3944" x1="239.57" y1="7.95703" x2="239.57" y2="262.311" gradientUnits="userSpaceOnUse">
<stop stop-color="#4487DA"/>
<stop offset="1" stop-color="#13427C"/>
</linearGradient>
<linearGradient id="paint3_linear_462_3944" x1="25.2653" y1="193.134" x2="25.2653" y2="316.122" gradientUnits="userSpaceOnUse">
<stop stop-color="#4487DA"/>
<stop offset="1" stop-color="#13427C"/>
</linearGradient>
<linearGradient id="paint4_linear_462_3944" x1="25.6678" y1="73.291" x2="25.6678" y2="196.296" gradientUnits="userSpaceOnUse">
<stop stop-color="#4487DA"/>
<stop offset="1" stop-color="#13427C"/>
</linearGradient>
<linearGradient id="paint5_linear_462_3944" x1="432.977" y1="93.0601" x2="432.977" y2="323.129" gradientUnits="userSpaceOnUse">
<stop stop-color="#4487DA"/>
<stop offset="1" stop-color="#13427C"/>
</linearGradient>
<linearGradient id="paint6_linear_462_3944" x1="169.991" y1="0.529785" x2="169.991" y2="160.76" gradientUnits="userSpaceOnUse">
<stop stop-color="#4487DA"/>
<stop offset="1" stop-color="#13427C"/>
</linearGradient>
<linearGradient id="paint7_linear_462_3944" x1="432.928" y1="260.171" x2="432.928" y2="558.603" gradientUnits="userSpaceOnUse">
<stop stop-color="#4487DA"/>
<stop offset="1" stop-color="#13427C"/>
</linearGradient>
<linearGradient id="paint8_linear_462_3944" x1="425.484" y1="267.851" x2="425.484" y2="558.79" gradientUnits="userSpaceOnUse">
<stop stop-color="#4487DA"/>
<stop offset="1" stop-color="#13427C"/>
</linearGradient>
<linearGradient id="paint9_linear_462_3944" x1="417.637" y1="318.769" x2="417.637" y2="403.956" gradientUnits="userSpaceOnUse">
<stop stop-color="#4487DA"/>
<stop offset="1" stop-color="#13427C"/>
</linearGradient>
<linearGradient id="paint10_linear_462_3944" x1="500.111" y1="391.656" x2="500.111" y2="411.796" gradientUnits="userSpaceOnUse">
<stop stop-color="#4487DA"/>
<stop offset="1" stop-color="#13427C"/>
</linearGradient>
<linearGradient id="paint11_linear_462_3944" x1="417.696" y1="300.444" x2="417.696" y2="385.632" gradientUnits="userSpaceOnUse">
<stop stop-color="#4487DA"/>
<stop offset="1" stop-color="#13427C"/>
</linearGradient>
<linearGradient id="paint12_linear_462_3944" x1="500.169" y1="373.331" x2="500.169" y2="393.471" gradientUnits="userSpaceOnUse">
<stop stop-color="#4487DA"/>
<stop offset="1" stop-color="#13427C"/>
</linearGradient>
<linearGradient id="paint13_linear_462_3944" x1="407.542" y1="368.97" x2="407.542" y2="389.11" gradientUnits="userSpaceOnUse">
<stop stop-color="#4487DA"/>
<stop offset="1" stop-color="#13427C"/>
</linearGradient>
<linearGradient id="paint14_linear_462_3944" x1="380.269" y1="367.572" x2="380.269" y2="398.681" gradientUnits="userSpaceOnUse">
<stop stop-color="#4487DA"/>
<stop offset="1" stop-color="#13427C"/>
</linearGradient>
<linearGradient id="paint15_linear_462_3944" x1="380.329" y1="350.161" x2="380.329" y2="381.27" gradientUnits="userSpaceOnUse">
<stop stop-color="#4487DA"/>
<stop offset="1" stop-color="#13427C"/>
</linearGradient>
<linearGradient id="paint16_linear_462_3944" x1="407.483" y1="386.464" x2="407.483" y2="406.521" gradientUnits="userSpaceOnUse">
<stop stop-color="#4487DA"/>
<stop offset="1" stop-color="#13427C"/>
</linearGradient>
<linearGradient id="paint17_linear_462_3944" x1="499.973" y1="431.636" x2="499.973" y2="451.776" gradientUnits="userSpaceOnUse">
<stop stop-color="#4487DA"/>
<stop offset="1" stop-color="#13427C"/>
</linearGradient>
<linearGradient id="paint18_linear_462_3944" x1="499.894" y1="457.386" x2="499.894" y2="477.526" gradientUnits="userSpaceOnUse">
<stop stop-color="#4487DA"/>
<stop offset="1" stop-color="#13427C"/>
</linearGradient>
<linearGradient id="paint19_linear_462_3944" x1="499.836" y1="474.681" x2="499.836" y2="494.854" gradientUnits="userSpaceOnUse">
<stop stop-color="#4487DA"/>
<stop offset="1" stop-color="#13427C"/>
</linearGradient>
<linearGradient id="paint20_linear_462_3944" x1="472.623" y1="455.888" x2="472.623" y2="487.014" gradientUnits="userSpaceOnUse">
<stop stop-color="#4487DA"/>
<stop offset="1" stop-color="#13427C"/>
</linearGradient>
<linearGradient id="paint21_linear_462_3944" x1="472.682" y1="438.495" x2="472.682" y2="469.604" gradientUnits="userSpaceOnUse">
<stop stop-color="#4487DA"/>
<stop offset="1" stop-color="#13427C"/>
</linearGradient>
<linearGradient id="paint22_linear_462_3944" x1="472.77" y1="412.829" x2="472.77" y2="443.938" gradientUnits="userSpaceOnUse">
<stop stop-color="#4487DA"/>
<stop offset="1" stop-color="#13427C"/>
</linearGradient>
<linearGradient id="paint23_linear_462_3944" x1="472.819" y1="395.418" x2="472.819" y2="426.527" gradientUnits="userSpaceOnUse">
<stop stop-color="#4487DA"/>
<stop offset="1" stop-color="#13427C"/>
</linearGradient>
<linearGradient id="paint24_linear_462_3944" x1="500.071" y1="414.226" x2="500.071" y2="434.366" gradientUnits="userSpaceOnUse">
<stop stop-color="#4487DA"/>
<stop offset="1" stop-color="#13427C"/>
</linearGradient>
<linearGradient id="paint25_linear_462_3944" x1="380.191" y1="393.237" x2="380.191" y2="424.346" gradientUnits="userSpaceOnUse">
<stop stop-color="#4487DA"/>
<stop offset="1" stop-color="#13427C"/>
</linearGradient>
<linearGradient id="paint26_linear_462_3944" x1="407.404" y1="412.046" x2="407.404" y2="432.187" gradientUnits="userSpaceOnUse">
<stop stop-color="#4487DA"/>
<stop offset="1" stop-color="#13427C"/>
</linearGradient>
<linearGradient id="paint27_linear_462_3944" x1="407.345" y1="429.457" x2="407.345" y2="449.597" gradientUnits="userSpaceOnUse">
<stop stop-color="#4487DA"/>
<stop offset="1" stop-color="#13427C"/>
</linearGradient>
<linearGradient id="paint28_linear_462_3944" x1="380.132" y1="410.648" x2="380.132" y2="441.758" gradientUnits="userSpaceOnUse">
<stop stop-color="#4487DA"/>
<stop offset="1" stop-color="#13427C"/>
</linearGradient>
<linearGradient id="paint29_linear_462_3944" x1="370.94" y1="453.375" x2="370.94" y2="493.306" gradientUnits="userSpaceOnUse">
<stop stop-color="#4487DA"/>
<stop offset="1" stop-color="#13427C"/>
</linearGradient>
<linearGradient id="paint30_linear_462_3944" x1="407.208" y1="481.005" x2="407.208" y2="501.146" gradientUnits="userSpaceOnUse">
<stop stop-color="#4487DA"/>
<stop offset="1" stop-color="#13427C"/>
</linearGradient>
<linearGradient id="paint31_linear_462_3944" x1="463.431" y1="498.632" x2="463.431" y2="538.563" gradientUnits="userSpaceOnUse">
<stop stop-color="#4487DA"/>
<stop offset="1" stop-color="#13427C"/>
</linearGradient>
<linearGradient id="paint32_linear_462_3944" x1="499.698" y1="526.279" x2="499.698" y2="546.419" gradientUnits="userSpaceOnUse">
<stop stop-color="#4487DA"/>
<stop offset="1" stop-color="#13427C"/>
</linearGradient>
</defs>
</svg>
